<?xml version="1.0" encoding="UTF-8"?>
<svg version="1.1" xmlns="http://www.w3.org/2000/svg" width="512" height="512">
<path d="M0 0 C1.18488007 -0.00953201 2.36976013 -0.01906403 3.59054565 -0.02888489 C5.5124321 -0.02751778 5.5124321 -0.02751778 7.47314453 -0.02612305 C9.44663376 -0.03255074 9.44663376 -0.03255074 11.45999146 -0.03910828 C14.24582953 -0.04656939 17.03154089 -0.04628053 19.81738281 -0.04101562 C23.38067453 -0.03522776 26.9434453 -0.05213524 30.50665092 -0.0753603 C33.91217035 -0.09367283 37.31757616 -0.08991155 40.72314453 -0.08862305 C42.0003537 -0.09783279 43.27756287 -0.10704254 44.59347534 -0.11653137 C45.78465973 -0.11030258 46.97584412 -0.10407379 48.203125 -0.09765625 C49.24886688 -0.09828568 50.29460876 -0.0989151 51.37203979 -0.0995636 C54.70253224 0.33638567 56.54899456 1.27659744 59.23095703 3.2746582 C61.74293871 7.32624156 62.62558821 9.72737475 61.5456543 14.38427734 C60.26828631 19.59430282 58.32503757 24.45562043 56.25830078 29.39575195 C55.8637822 30.35555969 55.46926361 31.31536743 55.06278992 32.30426025 C53.7711617 35.44294308 52.4697143 38.57745681 51.16845703 41.7121582 C50.25600021 43.92576247 49.3443908 46.13971621 48.43359375 48.35400391 C47.04191905 51.73702437 45.64971298 55.11981496 44.25482178 58.50151062 C40.41555251 67.80958516 36.62651811 77.13722565 32.85964966 86.47479248 C31.15541699 90.69824676 29.44716025 94.92007198 27.73876953 99.1418457 C27.38788773 100.00895172 27.03700592 100.87605774 26.67549133 101.7694397 C22.18640287 112.85949646 17.68629344 123.94506842 13.17840576 135.02749634 C12.23112777 137.35710518 11.28452699 139.68698953 10.33868408 142.0171814 C7.73614414 148.42793299 5.11832911 154.83203137 2.48046875 161.22833252 C1.22323449 164.29348586 -0.01329691 167.36650488 -1.24951172 170.44018555 C-2.03635538 172.35804239 -2.82407285 174.27554104 -3.61279297 176.19262695 C-3.9597522 177.07034256 -4.30671143 177.94805817 -4.66418457 178.85237122 C-5.16758362 180.0595002 -5.16758362 180.0595002 -5.68115234 181.29101562 C-5.96518921 181.99159592 -6.24922607 182.69217621 -6.54187012 183.41398621 C-8.25205288 186.00701063 -9.96364014 186.9684621 -12.76904297 188.2746582 C-15.60777283 188.66906738 -15.60777283 188.66906738 -18.74926758 188.69458008 C-19.93076889 188.71049194 -21.1122702 188.72640381 -22.32957458 188.74279785 C-23.59737259 188.74299927 -24.86517059 188.74320068 -26.17138672 188.7434082 C-28.13707359 188.75482849 -28.13707359 188.75482849 -30.14247131 188.76647949 C-32.91220674 188.77990072 -35.68165724 188.78150381 -38.45141602 188.77563477 C-41.99023316 188.76973928 -45.52767801 188.80033158 -49.06622982 188.84075165 C-52.45549153 188.87290904 -55.84447304 188.86851232 -59.23388672 188.8684082 C-60.49966049 188.88480347 -61.76543427 188.90119873 -63.06956482 188.91809082 C-72.85892714 188.84119565 -72.85892714 188.84119565 -76.55249023 185.86254883 C-79.8959831 181.9589224 -80.0362909 179.66882984 -79.97219849 174.68447876 C-79.66107767 170.9939792 -78.47523737 167.94391636 -77.01513672 164.56762695 C-76.7232547 163.85763046 -76.43137268 163.14763397 -76.13064575 162.41612244 C-75.17078621 160.09164879 -74.18888449 157.77720943 -73.20654297 155.4621582 C-72.52078963 153.8134998 -71.83648923 152.16423638 -71.15356445 150.5144043 C-69.38611159 146.25449653 -67.60061235 142.00240873 -65.8104248 137.75201416 C-64.19478085 133.90853904 -62.59499457 130.05851309 -60.99560547 126.20825195 C-59.15377215 121.77712454 -57.31039767 117.34667038 -55.45922852 112.91943359 C-51.26880233 102.89691575 -47.12105309 92.85767865 -43.00405884 82.80477905 C-42.02093808 80.40428552 -41.03707928 78.00409583 -40.05297852 75.60400391 C-39.7234166 74.80020798 -39.39385468 73.99641205 -39.05430603 73.16825867 C-38.72040359 72.35387833 -38.38650116 71.53949799 -38.04248047 70.70043945 C-35.7964815 65.22238746 -33.55165585 59.74385946 -31.30908203 54.2644043 C-29.17664783 49.05532679 -27.03914661 43.84834966 -24.89880371 38.64251709 C-24.0730039 36.63168371 -23.24882227 34.6201849 -22.4263916 32.60797119 C-9.11245355 0.04020937 -9.11245355 0.04020937 0 0 Z " fill="#FCBD36" transform="translate(357.76904296875,161.725341796875)"/>
<path d="M0 0 C1.18157684 -0.0159874 2.36315369 -0.03197479 3.58053589 -0.04844666 C4.85349518 -0.05380936 6.12645447 -0.05917206 7.43798828 -0.06469727 C8.74986115 -0.07372574 10.06173401 -0.08275421 11.4133606 -0.09205627 C14.18901018 -0.10852683 16.96453943 -0.11624281 19.74023438 -0.11914062 C23.28686864 -0.12452262 26.83236291 -0.1622005 30.37867546 -0.20788479 C33.77344066 -0.24488512 37.16802836 -0.24617271 40.56298828 -0.25219727 C41.83189911 -0.27172958 43.10080994 -0.2912619 44.40817261 -0.31138611 C54.22701053 -0.26114857 54.22701053 -0.26114857 57.91894531 2.71630859 C60.97241028 6.2878863 61.63136932 8.60991145 61.5625 13.35717773 C60.57284141 20.15756215 57.36533403 26.51935434 54.69580078 32.80639648 C54.01301576 34.44714298 53.33173375 36.08851565 52.65185547 37.73046875 C51.2188465 41.18406649 49.77677236 44.63366608 48.32714844 48.08032227 C46.20599395 53.12584142 44.10942407 58.18125409 42.02001953 63.23999023 C39.217393 70.02167295 36.40738998 76.80022691 33.59033203 83.57592773 C29.30603276 93.88323136 25.03793996 104.19719198 20.77630615 114.5138855 C19.57857206 117.41258877 18.37967786 120.31081024 17.18066406 123.20898438 C13.27271252 132.66117907 9.38932741 142.12246708 5.55126953 151.60327148 C4.46542039 154.27802409 3.37912564 156.95259535 2.29275513 159.62713623 C1.28801168 162.10803475 0.29145104 164.5921115 -0.70483398 167.07641602 C-8.3783531 186.06222343 -8.3783531 186.06222343 -12.86669922 188.30639648 C-14.74963132 188.41282504 -16.63631943 188.45522304 -18.5222168 188.4675293 C-19.70717239 188.47713684 -20.89212799 188.48674438 -22.11299133 188.49664307 C-23.39941025 188.50089294 -24.68582916 188.50514282 -26.01123047 188.50952148 C-27.3283049 188.51522156 -28.64537933 188.52092163 -30.00236511 188.52679443 C-32.79414252 188.53730474 -35.58589113 188.54314687 -38.37768555 188.54663086 C-41.94881814 188.55210883 -45.51956815 188.57612125 -49.09058094 188.60460281 C-52.50162342 188.6277518 -55.9126135 188.62968068 -59.32373047 188.63452148 C-60.60407669 188.64686829 -61.88442291 188.65921509 -63.2035675 188.67193604 C-64.39797958 188.66893494 -65.59239166 188.66593384 -66.82299805 188.6628418 C-67.87175613 188.66648743 -68.92051422 188.67013306 -70.00105286 188.67388916 C-73.33955588 188.24575699 -75.18039526 187.30976411 -77.86669922 185.30639648 C-80.37459948 181.26139606 -81.26236541 178.85784527 -80.18579102 174.20776367 C-78.8927655 168.93366363 -76.91445797 164.0108457 -74.82373047 159.00952148 C-74.22327408 157.54814758 -74.22327408 157.54814758 -73.61068726 156.05725098 C-72.30673211 152.88755875 -70.99292464 149.72205011 -69.67919922 146.55639648 C-68.76669621 144.342208 -67.85500187 142.12768609 -66.9440918 139.9128418 C-65.11268038 135.46089547 -63.27834403 131.01017301 -61.44189453 126.56030273 C-58.24812506 118.81372549 -55.09550583 111.05073291 -51.95446777 103.28265381 C-51.05009283 101.04624186 -50.14460243 98.81028467 -49.23876953 96.57446289 C-46.83421746 90.63905785 -44.43164582 84.70285204 -42.02978516 78.76635742 C-37.9842476 68.76787299 -33.93265506 58.77187315 -29.87164307 48.77966309 C-29.18056452 47.07885017 -28.48978537 45.37791558 -27.79925537 43.67687988 C-25.59906401 38.25698271 -23.39444815 32.83892278 -21.18380737 27.42327881 C-20.47854552 25.69375658 -19.77468291 23.96366303 -19.07229614 22.23297119 C-18.09620009 19.82875298 -17.1149102 17.42671824 -16.13232422 15.02514648 C-15.70206184 13.96056717 -15.70206184 13.96056717 -15.2631073 12.8744812 C-11.29880965 3.22923322 -11.29880965 3.22923322 -8.13674927 1.19163513 C-5.31265682 0.09033969 -3.0315819 0.03104726 0 0 Z " fill="#FCBD36" transform="translate(172.86669921875,161.693603515625)"/>
<path d="M0 0 C1.1849556 -0.00960754 2.36991119 -0.01921509 3.59077454 -0.02911377 C4.87719345 -0.03336365 6.16361237 -0.03761353 7.48901367 -0.04199219 C8.8060881 -0.04769226 10.12316254 -0.05339233 11.48014832 -0.05926514 C14.27192572 -0.06977544 17.06367434 -0.07561757 19.85546875 -0.07910156 C23.42660135 -0.08457954 26.99735135 -0.10859195 30.56836414 -0.13707352 C33.97940662 -0.16022251 37.3903967 -0.16215138 40.80151367 -0.16699219 C42.08185989 -0.17933899 43.36220612 -0.19168579 44.68135071 -0.20440674 C45.87576279 -0.20140564 47.07017487 -0.19840454 48.30078125 -0.1953125 C49.34953934 -0.19895813 50.39829742 -0.20260376 51.47883606 -0.20635986 C55.84622104 0.35371692 58.46299247 2.03647322 61.15698242 5.47363281 C63.35181323 10.44088148 62.47582955 14.2089649 60.59472656 19.1328125 C59.78374888 21.12061753 58.96125102 23.10374671 58.12963867 25.08300781 C57.68780746 26.15826721 57.24597626 27.23352661 56.79075623 28.34136963 C55.3390246 31.86863849 53.87292187 35.38974802 52.40698242 38.91113281 C51.39021597 41.37551559 50.37436747 43.8402513 49.36010742 46.30566406 C47.82109052 50.04478256 46.28118991 53.78352178 44.7361145 57.5201416 C40.7222244 67.22832684 36.76353015 76.95765842 32.83639526 86.70120239 C31.15528611 90.87033034 29.46865014 95.03721993 27.78198242 99.20410156 C27.43735458 100.05556259 27.09272675 100.90702362 26.73765564 101.7842865 C22.26576587 112.82963307 17.78368127 123.87083161 13.29394531 134.90893555 C12.3458194 137.24068329 11.39836365 139.57270368 10.45166016 141.9050293 C7.84952566 148.31477788 5.23496591 154.71914315 2.59838867 161.11480713 C1.7550094 163.16377047 0.91522507 165.21421685 0.07885742 167.26605225 C-1.12297901 170.20873231 -2.34017661 173.14457701 -3.56176758 176.07910156 C-3.91710571 176.95681717 -4.27244385 177.83453278 -4.6385498 178.73884583 C-5.14678284 179.94597481 -5.14678284 179.94597481 -5.6652832 181.17749023 C-5.95455688 181.87807053 -6.24383057 182.57865082 -6.54187012 183.30046082 C-7.96974504 185.68614118 -9.23402397 186.78453062 -11.65551758 188.16113281 C-14.38072205 188.54208374 -14.38072205 188.54208374 -17.53808594 188.54931641 C-19.31529274 188.56350113 -19.31529274 188.56350113 -21.12840271 188.57797241 C-22.40449905 188.57189972 -23.6805954 188.56582703 -24.99536133 188.55957031 C-26.96672813 188.56387558 -26.96672813 188.56387558 -28.97792053 188.56826782 C-31.75784906 188.5726861 -34.53748801 188.56627756 -37.31738281 188.55224609 C-40.87283153 188.53517067 -44.42759998 188.54498731 -47.98302364 188.56296349 C-51.38302334 188.57644152 -54.78284232 188.56699021 -58.18286133 188.55957031 C-59.45693344 188.56564301 -60.73100555 188.5717157 -62.04368591 188.57797241 C-63.23164261 188.56851593 -64.4195993 188.55905945 -65.64355469 188.54931641 C-66.68628036 188.54692963 -67.72900604 188.54454285 -68.80332947 188.54208374 C-73.15642894 187.96066442 -75.78011628 186.27802413 -78.46801758 182.84863281 C-80.56809705 178.09582138 -79.88747662 174.37990614 -78.08935547 169.6484375 C-77.36301992 167.87220406 -76.62516797 166.10065266 -75.87817383 164.33300781 C-75.48050812 163.36818481 -75.08284241 162.40336182 -74.67312622 161.40930176 C-73.36424023 158.23922656 -72.04102046 155.07533917 -70.71801758 151.91113281 C-69.80123594 149.69644871 -68.88564077 147.48127312 -67.97119141 145.265625 C-66.10374063 140.74226197 -64.23205718 136.22068639 -62.35766602 131.70019531 C-58.81806747 123.15026478 -55.34604034 114.57338168 -51.88421631 105.99172974 C-50.49253526 102.54246715 -49.09779206 99.09444598 -47.70315552 95.64637756 C-46.68241936 93.12260838 -45.66207267 90.59868209 -44.6418457 88.07470703 C-39.9452773 76.45635149 -35.24557761 64.83929745 -30.5262146 53.23017883 C-28.85131348 49.10921586 -27.18012718 44.9867897 -25.51391602 40.86230469 C-23.69165249 36.35180813 -21.86272621 31.84406273 -20.02957153 27.33798218 C-19.32936095 25.6135337 -18.63145304 23.88814819 -17.93600464 22.16177368 C-16.96982743 19.76444702 -15.99529413 17.37067794 -15.01879883 14.97753906 C-14.59629349 13.92073944 -14.59629349 13.92073944 -14.16525269 12.84259033 C-11.04925768 5.26003995 -8.86850392 0.05787063 0 0 Z " fill="#4C4C4C" transform="translate(264.655517578125,161.8388671875)"/>
<path d="M0 0 C1.18488007 -0.00953201 2.36976013 -0.01906403 3.59054565 -0.02888489 C5.5124321 -0.02751778 5.5124321 -0.02751778 7.47314453 -0.02612305 C9.44663376 -0.03255074 9.44663376 -0.03255074 11.45999146 -0.03910828 C14.24582953 -0.04656939 17.03154089 -0.04628053 19.81738281 -0.04101562 C23.38067453 -0.03522776 26.9434453 -0.05213524 30.50665092 -0.0753603 C33.91217035 -0.09367283 37.31757616 -0.08991155 40.72314453 -0.08862305 C42.0003537 -0.09783279 43.27756287 -0.10704254 44.59347534 -0.11653137 C45.78465973 -0.11030258 46.97584412 -0.10407379 48.203125 -0.09765625 C49.24886688 -0.09828568 50.29460876 -0.0989151 51.37203979 -0.0995636 C54.69969028 0.33601367 56.5458905 1.28709084 59.23095703 3.2746582 C62.17520306 7.69102725 61.9984517 11.08297242 61.23095703 16.2746582 C59.44443729 21.9494406 57.12778401 27.36973517 54.79345703 32.8371582 C54.11047803 34.47326475 53.42920122 36.11008276 52.74951172 37.74755859 C51.31722098 41.19057716 49.87507154 44.62921266 48.42480469 48.06469727 C46.29985172 53.10199671 44.20429738 58.15106671 42.11767578 63.2043457 C39.31530892 69.98744202 36.50563597 76.76742586 33.68798828 83.54418945 C28.99978921 94.82314274 24.33187511 106.11044003 19.66845703 117.3996582 C19.27388306 118.35444061 18.87930908 119.30922302 18.47277832 120.29293823 C14.15757266 130.73558986 9.85428337 141.18293832 5.57861328 151.6418457 C5.20820419 152.54734161 4.8377951 153.45283752 4.4561615 154.38577271 C2.70673422 158.6627653 0.95961495 162.94066949 -0.78295898 167.22045898 C-1.4032318 168.73856156 -2.02358825 170.25662996 -2.64404297 171.7746582 C-2.91816513 172.45060028 -3.19228729 173.12654236 -3.47471619 173.82296753 C-8.29940586 185.60346599 -8.29940586 185.60346599 -12.76904297 188.2746582 C-15.48751831 188.66906738 -15.48751831 188.66906738 -18.63574219 188.69458008 C-19.81731903 188.71049194 -20.99889587 188.72640381 -22.21627808 188.74279785 C-24.12571701 188.74309998 -24.12571701 188.74309998 -26.07373047 188.7434082 C-27.38560333 188.75102173 -28.6974762 188.75863525 -30.04910278 188.76647949 C-32.82481437 188.77991497 -35.6002416 188.78149791 -38.37597656 188.77563477 C-41.92266929 188.76974494 -45.46799008 188.80030142 -49.01441765 188.84075165 C-52.40923117 188.87291582 -55.80376516 188.8685123 -59.19873047 188.8684082 C-60.4676413 188.88480347 -61.73655212 188.90119873 -63.04391479 188.91809082 C-72.86120499 188.84118581 -72.86120499 188.84118581 -76.5546875 185.86254883 C-79.89536325 181.95834123 -80.0362774 179.66777969 -79.97219849 174.68447876 C-79.66107767 170.9939792 -78.47523737 167.94391636 -77.01513672 164.56762695 C-76.7232547 163.85763046 -76.43137268 163.14763397 -76.13064575 162.41612244 C-75.17078621 160.09164879 -74.18888449 157.77720943 -73.20654297 155.4621582 C-72.52078963 153.8134998 -71.83648923 152.16423638 -71.15356445 150.5144043 C-69.38611159 146.25449653 -67.60061235 142.00240873 -65.8104248 137.75201416 C-64.19478085 133.90853904 -62.59499457 130.05851309 -60.99560547 126.20825195 C-59.15377215 121.77712454 -57.31039767 117.34667038 -55.45922852 112.91943359 C-51.26880233 102.89691575 -47.12105309 92.85767865 -43.00405884 82.80477905 C-42.02093808 80.40428552 -41.03707928 78.00409583 -40.05297852 75.60400391 C-39.7234166 74.80020798 -39.39385468 73.99641205 -39.05430603 73.16825867 C-38.72040359 72.35387833 -38.38650116 71.53949799 -38.04248047 70.70043945 C-35.7964815 65.22238746 -33.55165585 59.74385946 -31.30908203 54.2644043 C-29.17664783 49.05532679 -27.03914661 43.84834966 -24.89880371 38.64251709 C-24.0730039 36.63168371 -23.24882227 34.6201849 -22.4263916 32.60797119 C-9.11245355 0.04020937 -9.11245355 0.04020937 0 0 Z " fill="#4C4C4C" transform="translate(450.76904296875,161.725341796875)"/>
<path d="M0 0 C1.18157684 -0.01591187 2.36315369 -0.03182373 3.58053589 -0.04821777 C5.48997482 -0.0485199 5.48997482 -0.0485199 7.43798828 -0.04882812 C8.74986115 -0.05644165 10.06173401 -0.06405518 11.4133606 -0.07189941 C14.18907218 -0.08533489 16.96449941 -0.08691783 19.74023438 -0.08105469 C23.2869271 -0.07516486 26.83224789 -0.10572135 30.37867546 -0.14617157 C33.77348899 -0.17833574 37.16802298 -0.17393222 40.56298828 -0.17382812 C42.46635452 -0.19842102 42.46635452 -0.19842102 44.40817261 -0.22351074 C54.2254628 -0.14660574 54.2254628 -0.14660574 57.91894531 2.83203125 C60.97355744 6.40191974 61.6313593 8.72412782 61.5625 13.47070312 C60.57284141 20.27108754 57.36533403 26.63287973 54.69580078 32.91992188 C54.01301576 34.56066837 53.33173375 36.20204104 52.65185547 37.84399414 C51.2188465 41.29759188 49.77677236 44.74719147 48.32714844 48.19384766 C46.20599395 53.23936681 44.10942407 58.29477948 42.02001953 63.35351562 C39.217393 70.13519834 36.40738998 76.9137523 33.59033203 83.68945312 C29.30603276 93.99675675 25.03793996 104.31071737 20.77630615 114.62741089 C19.57857206 117.52611417 18.37967786 120.42433563 17.18066406 123.32250977 C13.27271252 132.77470447 9.38932741 142.23599247 5.55126953 151.71679688 C4.46542039 154.39154948 3.37912564 157.06612074 2.29275513 159.74066162 C1.28801168 162.22156014 0.29145104 164.70563689 -0.70483398 167.18994141 C-8.3783531 186.17574882 -8.3783531 186.17574882 -12.86669922 188.41992188 C-14.74963132 188.52635043 -16.63631943 188.56874843 -18.5222168 188.58105469 C-19.70717239 188.59066223 -20.89212799 188.60026978 -22.11299133 188.61016846 C-23.39941025 188.61441833 -24.68582916 188.61866821 -26.01123047 188.62304688 C-27.3283049 188.62874695 -28.64537933 188.63444702 -30.00236511 188.64031982 C-32.79414252 188.65083013 -35.58589113 188.65667226 -38.37768555 188.66015625 C-41.94881814 188.66563423 -45.51956815 188.68964664 -49.09058094 188.7181282 C-52.50162342 188.74127719 -55.9126135 188.74320607 -59.32373047 188.74804688 C-60.60407669 188.76039368 -61.88442291 188.77274048 -63.2035675 188.78546143 C-64.39797958 188.78246033 -65.59239166 188.77945923 -66.82299805 188.77636719 C-67.87175613 188.78001282 -68.92051422 188.78365845 -70.00105286 188.78741455 C-73.33673602 188.359644 -75.17726195 187.4127902 -77.86669922 185.41992188 C-80.81503562 180.99741727 -80.6444533 177.61939652 -79.86669922 172.41992188 C-78.03687175 166.64159955 -75.68100682 161.11584494 -73.30419922 155.54492188 C-72.61825612 153.90090157 -71.93395994 152.25619325 -71.2512207 150.61083984 C-69.83696011 147.21096011 -68.41261974 143.81559141 -66.97900391 140.42382812 C-65.00012686 135.74201211 -63.04265204 131.05157993 -61.09326172 126.35742188 C-59.25146956 121.92489252 -57.4085688 117.49286118 -55.55688477 113.06445312 C-51.03210689 102.24275675 -46.56152731 91.39968024 -42.11669922 80.54492188 C-36.40487683 66.60210926 -30.68481382 52.66273708 -24.94152832 38.73284912 C-24.10982579 36.71479826 -23.2788349 34.69645395 -22.4486084 32.67779541 C-20.24347298 27.31681087 -18.02856894 21.96023461 -15.78668213 16.61450195 C-14.96960899 14.66540875 -14.15867636 12.71374393 -13.34863281 10.76171875 C-12.71368896 9.28541992 -12.71368896 9.28541992 -12.06591797 7.77929688 C-11.55871216 6.58771973 -11.55871216 6.58771973 -11.04125977 5.37207031 C-8.29169285 0.80222265 -5.12895924 0.04156425 0 0 Z " fill="#4C4C4C" transform="translate(79.86669921875,161.580078125)"/>
<path d="M0 0 C0.74507813 0.00902344 1.49015625 0.01804688 2.2578125 0.02734375 C4.08868059 0.05081642 5.91938238 0.08668475 7.75 0.125 C7.151875 0.393125 6.55375 0.66125 5.9375 0.9375 C2.22120446 2.95491758 0.48120578 5.2328675 -1.06494141 9.12939453 C-1.39090805 9.93941925 -1.71687469 10.74944397 -2.05271912 11.58401489 C-2.39883743 12.4663681 -2.74495575 13.34872131 -3.1015625 14.2578125 C-3.47269669 15.1850412 -3.84383087 16.1122699 -4.22621155 17.06759644 C-5.02864458 19.07434897 -5.82765179 21.082474 -6.62362671 23.09179688 C-8.75299741 28.46588089 -10.90772832 33.82980406 -13.05859375 39.1953125 C-13.49559097 40.28749084 -13.9325882 41.37966919 -14.38282776 42.50494385 C-18.48517168 52.74627117 -22.69441197 62.94134066 -26.9375 73.125 C-28.33772276 76.48938241 -29.73733414 79.85401889 -31.13671875 83.21875 C-31.47890442 84.04128265 -31.82109009 84.86381531 -32.17364502 85.71127319 C-36.55626317 96.25449131 -40.88163956 106.82128896 -45.19604492 117.39257812 C-48.35952817 125.135142 -51.55109507 132.86386499 -54.81420898 140.56506348 C-56.41204342 144.33624121 -58.00155493 148.11090814 -59.59130859 151.88549805 C-60.35660305 153.69488892 -61.12637864 155.50239178 -61.90087891 157.30786133 C-62.97631845 159.81526435 -64.03641536 162.32866998 -65.09375 164.84375 C-65.57527527 165.94891968 -65.57527527 165.94891968 -66.06652832 167.07641602 C-67.94047124 171.5840014 -68.67705431 175.15703732 -68.25 180.125 C-66.79704383 183.56621198 -65.93439721 184.7907595 -62.5625 186.4375 C-61.799375 186.664375 -61.03625 186.89125 -60.25 187.125 C-60.25 187.455 -60.25 187.785 -60.25 188.125 C-62.64652528 188.20639142 -65.04025436 188.26567009 -67.4375 188.3125 C-68.11103516 188.33763672 -68.78457031 188.36277344 -69.47851562 188.38867188 C-73.95554709 188.45418941 -76.71932141 187.9120375 -80.25 185.125 C-82.75790026 181.07999957 -83.64566619 178.67644878 -82.5690918 174.02636719 C-81.27606628 168.75226714 -79.29775875 163.82944921 -77.20703125 158.828125 C-76.60657486 157.3667511 -76.60657486 157.3667511 -75.99398804 155.87585449 C-74.69003289 152.70616226 -73.37622542 149.54065362 -72.0625 146.375 C-71.14999699 144.16081152 -70.23830265 141.9462896 -69.32739258 139.73144531 C-67.49598116 135.27949899 -65.66164481 130.82877652 -63.82519531 126.37890625 C-60.63142584 118.632329 -57.47880661 110.86933643 -54.33776855 103.10125732 C-53.43339361 100.86484538 -52.52790321 98.62888819 -51.62207031 96.39306641 C-49.21751824 90.45766137 -46.8149466 84.52145555 -44.41308594 78.58496094 C-40.36754839 68.5864765 -36.31595584 58.59047666 -32.25494385 48.5982666 C-31.56386531 46.89745368 -30.87308615 45.1965191 -30.18255615 43.4954834 C-27.98236479 38.07558622 -25.77774893 32.65752629 -23.56710815 27.24188232 C-22.8618463 25.51236009 -22.1579837 23.78226655 -21.45559692 22.05157471 C-20.47950087 19.6473565 -19.49821099 17.24532176 -18.515625 14.84375 C-18.08536263 13.77917068 -18.08536263 13.77917068 -17.64640808 12.69308472 C-13.799948 3.33453886 -13.799948 3.33453886 -10.578125 0.8203125 C-7.07618761 -0.22556813 -3.6162403 -0.08305852 0 0 Z " fill="#FCAB32" transform="translate(175.25,161.875)"/>
<path d="M0 0 C0.74958984 0.00902344 1.49917969 0.01804688 2.27148438 0.02734375 C4.11862654 0.05087422 5.96560412 0.08674439 7.8125 0.125 C6.8225 0.785 5.8325 1.445 4.8125 2.125 C1.15028105 5.23770668 -0.54788813 8.63796942 -2.296875 13.01953125 C-2.72203903 14.04933609 -2.72203903 14.04933609 -3.15579224 15.09994507 C-4.0925271 17.3753614 -5.01492124 19.65631145 -5.9375 21.9375 C-6.60079981 23.55612499 -7.26504374 25.17436338 -7.93017578 26.79223633 C-9.3246282 30.18897781 -10.71314205 33.58805612 -12.09667969 36.98925781 C-14.09884809 41.91097458 -16.11371087 46.82739697 -18.1328125 51.7421875 C-20.11167054 56.56014926 -22.09002272 61.37830792 -24.06347656 66.19848633 C-28.9047368 78.02128023 -33.78726366 89.82654139 -38.6875 101.625 C-44.48766386 115.592189 -50.26019503 129.57039179 -56 143.5625 C-56.33692871 144.38347168 -56.67385742 145.20444336 -57.02099609 146.05029297 C-58.56239933 149.80694108 -60.10135965 153.56453335 -61.63354492 157.32495117 C-62.57648634 159.63845405 -63.53227115 161.94441613 -64.5012207 164.24731445 C-64.8643335 165.11960693 -65.22744629 165.99189941 -65.6015625 166.890625 C-65.90143066 167.59864258 -66.20129883 168.30666016 -66.51025391 169.03613281 C-67.8052193 173.03026545 -68.04805944 177.01911048 -67.1875 181.125 C-64.75293724 184.28335169 -62.48777757 185.92481495 -59.1875 188.125 C-61.73098425 188.26093443 -64.26711496 188.35948907 -66.8125 188.4375 C-67.88177734 188.5003418 -67.88177734 188.5003418 -68.97265625 188.56445312 C-73.02101196 188.65730532 -75.45154313 188.33212546 -78.6484375 185.73046875 C-82.38634575 181.89479983 -82.45690788 179.68714687 -82.39065552 174.53482056 C-82.0795347 170.844321 -80.8936944 167.79425816 -79.43359375 164.41796875 C-79.14171173 163.70797226 -78.84982971 162.99797577 -78.54910278 162.26646423 C-77.58924324 159.94199058 -76.60734152 157.62755123 -75.625 155.3125 C-74.93924666 153.6638416 -74.25494626 152.01457818 -73.57202148 150.36474609 C-71.80456863 146.10483833 -70.01906938 141.85275053 -68.22888184 137.60235596 C-66.61323788 133.75888084 -65.01345161 129.90885488 -63.4140625 126.05859375 C-61.57222918 121.62746633 -59.7288547 117.19701217 -57.87768555 112.76977539 C-53.68725936 102.74725755 -49.53951012 92.70802044 -45.42251587 82.65512085 C-44.43939511 80.25462731 -43.45553631 77.85443763 -42.47143555 75.4543457 C-42.14187363 74.65054977 -41.81231171 73.84675385 -41.47276306 73.01860046 C-41.13886063 72.20422012 -40.80495819 71.38983978 -40.4609375 70.55078125 C-38.21493853 65.07272926 -35.97011288 59.59420126 -33.72753906 54.11474609 C-31.59510487 48.90566859 -29.45760364 43.69869145 -27.31726074 38.49285889 C-26.49146093 36.48202551 -25.6672793 34.47052669 -24.84484863 32.45831299 C-11.46918606 -0.26043567 -11.46918606 -0.26043567 0 0 Z " fill="#FCAB32" transform="translate(360.1875,161.875)"/>
<path d="M0 0 C0.74958984 0.00902344 1.49917969 0.01804688 2.27148438 0.02734375 C4.11862654 0.05087422 5.96560412 0.08674439 7.8125 0.125 C6.8225 0.785 5.8325 1.445 4.8125 2.125 C1.15028096 5.23770675 -0.54788739 8.63796721 -2.296875 13.01953125 C-2.58022705 13.70584122 -2.8635791 14.39215118 -3.15551758 15.09925842 C-4.09235187 17.37490053 -5.01483382 19.65608075 -5.9375 21.9375 C-6.60226691 23.55978616 -7.26797594 25.18168654 -7.93457031 26.80322266 C-9.33046157 30.20363669 -10.72043984 33.60637777 -12.10546875 37.01123047 C-14.08095092 41.86716493 -16.06945987 46.71765592 -18.0625 51.56640625 C-20.0181539 56.3256787 -21.97307653 61.08523929 -23.92285156 65.84692383 C-28.75196 77.64019411 -33.60860287 89.42190131 -38.47766113 101.19873047 C-44.71133445 116.27628237 -50.93966589 131.3560098 -57.13891602 146.44775391 C-57.82908326 148.12761616 -58.51966466 149.80730833 -59.21069336 151.48681641 C-60.16253131 153.80060145 -61.11274893 156.1150452 -62.0625 158.4296875 C-62.3366272 159.09531708 -62.61075439 159.76094666 -62.89318848 160.44674683 C-63.66709461 162.33595824 -64.42913076 164.22950391 -65.1875 166.125 C-65.61337402 167.16747894 -65.61337402 167.16747894 -66.04785156 168.23101807 C-66.32338867 168.92709167 -66.59892578 169.62316528 -66.8828125 170.34033203 C-67.13305176 170.96408722 -67.38329102 171.58784241 -67.64111328 172.23049927 C-68.69539718 175.88604495 -68.16760309 178.44961343 -67.1875 182.125 C-64.86680035 184.54916001 -64.86680035 184.54916001 -62.1875 186.125 C-61.5275 186.785 -60.8675 187.445 -60.1875 188.125 C-75.22849757 188.98612581 -75.22849757 188.98612581 -79.0625 185.75 C-82.71458035 181.23860662 -82.66413369 177.77880493 -82.1875 172.125 C-81.53156355 169.42929302 -80.5333118 166.96092111 -79.43359375 164.41796875 C-79.14171173 163.70797226 -78.84982971 162.99797577 -78.54910278 162.26646423 C-77.58924324 159.94199058 -76.60734152 157.62755123 -75.625 155.3125 C-74.93924666 153.6638416 -74.25494626 152.01457818 -73.57202148 150.36474609 C-71.80456863 146.10483833 -70.01906938 141.85275053 -68.22888184 137.60235596 C-66.61323788 133.75888084 -65.01345161 129.90885488 -63.4140625 126.05859375 C-61.57222918 121.62746633 -59.7288547 117.19701217 -57.87768555 112.76977539 C-53.68725936 102.74725755 -49.53951012 92.70802044 -45.42251587 82.65512085 C-44.43939511 80.25462731 -43.45553631 77.85443763 -42.47143555 75.4543457 C-42.14187363 74.65054977 -41.81231171 73.84675385 -41.47276306 73.01860046 C-41.13886063 72.20422012 -40.80495819 71.38983978 -40.4609375 70.55078125 C-38.21493853 65.07272926 -35.97011288 59.59420126 -33.72753906 54.11474609 C-31.59510487 48.90566859 -29.45760364 43.69869145 -27.31726074 38.49285889 C-26.49146093 36.48202551 -25.6672793 34.47052669 -24.84484863 32.45831299 C-11.46918606 -0.26043567 -11.46918606 -0.26043567 0 0 Z " fill="#3E3E3E" transform="translate(453.1875,161.875)"/>
<path d="M0 0 C0.75410156 0.00451172 1.50820313 0.00902344 2.28515625 0.01367188 C4.14847127 0.02546501 6.01174555 0.04340058 7.875 0.0625 C6.885 0.7225 5.895 1.3825 4.875 2.0625 C0.74244882 5.46402598 -0.77020674 9.32871392 -2.6796875 14.1796875 C-3.18019371 15.41446083 -3.18019371 15.41446083 -3.69081116 16.67417908 C-4.80332802 19.42490969 -5.90146861 22.1811576 -7 24.9375 C-7.79134919 26.90105822 -8.58377322 28.86418356 -9.37719727 30.8269043 C-11.07732158 35.03535083 -12.77237587 39.24579223 -14.46435547 43.45751953 C-17.13348438 50.09362423 -19.83067925 56.71807832 -22.53515625 63.33984375 C-22.98844803 64.44982727 -23.44173981 65.55981079 -23.9087677 66.70343018 C-24.83032077 68.95987644 -25.75191616 71.21630542 -26.67355347 73.47271729 C-35.06078649 94.01759591 -43.3955782 114.58365102 -51.69702148 135.16333008 C-52.05790359 136.05715897 -52.41878571 136.95098785 -52.79060364 137.87190247 C-53.49833484 139.6264867 -54.20457481 141.38167328 -54.90922546 143.13749695 C-56.78226708 147.79312786 -58.69715926 152.42675337 -60.66552734 157.04296875 C-61.29251778 158.52899597 -61.29251778 158.52899597 -61.93217468 160.04504395 C-62.73354297 161.94096284 -63.54466941 163.83279818 -64.36726379 165.71960449 C-66.45564133 170.686078 -67.70509417 174.56900382 -67.125 180.0625 C-65.67204383 183.50371198 -64.80939721 184.7282595 -61.4375 186.375 C-60.674375 186.601875 -59.91125 186.82875 -59.125 187.0625 C-59.125 187.3925 -59.125 187.7225 -59.125 188.0625 C-61.52152528 188.14389142 -63.91525436 188.20317009 -66.3125 188.25 C-66.98603516 188.27513672 -67.65957031 188.30027344 -68.35351562 188.32617188 C-72.8380038 188.39179853 -75.55999345 187.80178812 -79.125 185.0625 C-82.08512626 181.28578719 -82.55098013 178.79352716 -82.125 174.0625 C-81.07984621 170.69622802 -79.71891232 167.4792381 -78.34765625 164.234375 C-77.94999054 163.269552 -77.55232483 162.304729 -77.14260864 161.31066895 C-75.83372265 158.14059374 -74.51050289 154.97670635 -73.1875 151.8125 C-72.27071836 149.5978159 -71.35512319 147.38264031 -70.44067383 145.16699219 C-68.57322305 140.64362916 -66.70153961 136.12205358 -64.82714844 131.6015625 C-61.28754989 123.05163197 -57.81552276 114.47474887 -54.35369873 105.89309692 C-52.96201768 102.44383433 -51.56727448 98.99581317 -50.17263794 95.54774475 C-49.15190178 93.02397557 -48.13155509 90.50004928 -47.11132812 87.97607422 C-42.41475972 76.35771868 -37.71506003 64.74066464 -32.99569702 53.13154602 C-31.3207959 49.01058305 -29.6496096 44.88815688 -27.98339844 40.76367188 C-26.16113491 36.25317532 -24.33220863 31.74542992 -22.49905396 27.23934937 C-21.79884337 25.51490089 -21.10093546 23.78951538 -20.40548706 22.06314087 C-19.43930985 19.66581421 -18.46477655 17.27204513 -17.48828125 14.87890625 C-17.06577591 13.82210663 -17.06577591 13.82210663 -16.63473511 12.74395752 C-12.86732647 3.57623878 -10.36259201 -0.11633307 0 0 Z " fill="#3E3E3E" transform="translate(267.125,161.9375)"/>
<path d="M0 0 C0.74507813 0.01353516 1.49015625 0.02707031 2.2578125 0.04101562 C4.08885416 0.07622796 5.91952169 0.13003149 7.75 0.1875 C6.76 0.8475 5.77 1.5075 4.75 2.1875 C1.08778096 5.30020675 -0.61038739 8.70046721 -2.359375 13.08203125 C-2.64272705 13.76834122 -2.9260791 14.45465118 -3.21801758 15.16175842 C-4.15485187 17.43740053 -5.07733382 19.71858075 -6 22 C-6.66476691 23.62228616 -7.33047594 25.24418654 -7.99707031 26.86572266 C-9.39296157 30.26613669 -10.78293984 33.66887777 -12.16796875 37.07373047 C-14.14345092 41.92966493 -16.13195987 46.78015592 -18.125 51.62890625 C-20.0806539 56.3881787 -22.03557653 61.14773929 -23.98535156 65.90942383 C-28.81446 77.70269411 -33.67110287 89.48440131 -38.54016113 101.26123047 C-44.77383445 116.33878237 -51.00216589 131.4185098 -57.20141602 146.51025391 C-57.89158326 148.19011616 -58.58216466 149.86980833 -59.27319336 151.54931641 C-60.22503131 153.86310145 -61.17524893 156.1775452 -62.125 158.4921875 C-62.3991272 159.15781708 -62.67325439 159.82344666 -62.95568848 160.50924683 C-63.72959355 162.39845566 -64.49142158 164.29209093 -65.25 166.1875 C-65.67696167 167.22997894 -65.67696167 167.22997894 -66.11254883 168.29351807 C-66.3886499 168.98959167 -66.66475098 169.68566528 -66.94921875 170.40283203 C-67.20018311 171.02658722 -67.45114746 171.65034241 -67.7097168 172.29299927 C-68.73840648 175.90009524 -68.157107 178.55907198 -67.25 182.1875 C-65.1190234 184.88673702 -63.12106935 186.27345377 -60.25 188.1875 C-62.64652528 188.26889142 -65.04025436 188.32817009 -67.4375 188.375 C-68.11103516 188.40013672 -68.78457031 188.42527344 -69.47851562 188.45117188 C-73.95855667 188.51673345 -76.71037634 187.96354854 -80.25 185.1875 C-83.1983364 180.7649954 -83.02775408 177.38697465 -82.25 172.1875 C-80.42017253 166.40917768 -78.0643076 160.88342306 -75.6875 155.3125 C-75.0015569 153.6684797 -74.31726072 152.02377137 -73.63452148 150.37841797 C-72.2202609 146.97853823 -70.79592052 143.58316953 -69.36230469 140.19140625 C-67.38342765 135.50959024 -65.42595282 130.81915806 -63.4765625 126.125 C-61.63477034 121.69247065 -59.79186958 117.2604393 -57.94018555 112.83203125 C-53.41540767 102.01033488 -48.94482809 91.16725836 -44.5 80.3125 C-38.78817761 66.36968738 -33.0681146 52.4303152 -27.3248291 38.50042725 C-26.49312658 36.48237639 -25.66213568 34.46403208 -24.83190918 32.44537354 C-22.62677376 27.08438899 -20.41186972 21.72781273 -18.16998291 16.38208008 C-17.35290977 14.43298687 -16.54197714 12.48132205 -15.73193359 10.52929688 C-15.09698975 9.05299805 -15.09698975 9.05299805 -14.44921875 7.546875 C-13.94201294 6.35529785 -13.94201294 6.35529785 -13.42456055 5.13964844 C-10.14515858 -0.31079807 -5.84896942 -0.20151043 0 0 Z " fill="#3E3E3E" transform="translate(82.25,161.8125)"/>
</svg>
