<?xml version="1.0" encoding="UTF-8"?>
<svg version="1.1" xmlns="http://www.w3.org/2000/svg" width="512" height="512">
<path d="M0 0 C116.16 0 232.32 0 352 0 C352 153.12 352 306.24 352 464 C235.84 464 119.68 464 0 464 C0 310.88 0 157.76 0 0 Z " fill="#195C84" transform="translate(80,24)"/>
<path d="M0 0 C50.16 0 100.32 0 152 0 C152 13.86 152 27.72 152 42 C153.65 42.33 155.3 42.66 157 43 C162.12098966 46.67305911 166.20725746 51.94286395 168 58 C169.05994785 65.37592575 168.04538708 71.70717565 164 78 C161.10236388 81.65294412 158.56332991 84.50106492 154.0625 85.9375 C153.381875 85.958125 152.70125 85.97875 152 86 C152 87.65 152 89.3 152 91 C152.56960449 91.15637939 153.13920898 91.31275879 153.72607422 91.47387695 C161.06152995 93.57232822 168.06437306 96.30988402 175.125 99.1875 C176.27226562 99.65091797 177.41953125 100.11433594 178.6015625 100.59179688 C181.40267125 101.72391166 184.20207482 102.86004534 187 104 C186.53803208 105.42671564 186.07248703 106.85227329 185.60546875 108.27734375 C185.34660889 109.07132568 185.08774902 109.86530762 184.82104492 110.68334961 C183.79020774 113.5919473 182.46163059 116.28554319 181 119 C170.92898212 116.35842154 161.53101572 112.1285413 152 108 C149.29885897 127.45455704 149.29885897 127.45455704 155.81152344 145.24658203 C161.97607044 152.65534445 169.32805774 159.14289725 176.87020874 165.12062073 C178.55908203 166.49926758 178.55908203 166.49926758 181 169 C180.96788103 172.75666801 178.7451992 174.71683866 176.1875 177.3125 C175.50042969 178.03050781 174.81335938 178.74851563 174.10546875 179.48828125 C172 181 172 181 170.20727539 180.91503906 C167.01937933 179.5934779 164.93883562 177.30756926 162.578125 174.87109375 C162.07327576 174.36199966 161.56842651 173.85290558 161.04827881 173.3283844 C159.44166021 171.7050088 157.84580178 170.071503 156.25 168.4375 C155.16085016 167.3332995 154.07101395 166.22977555 152.98046875 165.12695312 C150.3122924 162.4257471 147.65371709 159.71540937 145 157 C141.13671373 158.5847358 138.71123077 161.05956887 135.796875 164.0078125 C135.3142218 164.49329559 134.8315686 164.97877869 134.33428955 165.47897339 C132.80141438 167.02299866 131.27565996 168.57384824 129.75 170.125 C128.70879639 171.17624009 127.66713459 172.22702657 126.625 173.27734375 C124.07800536 175.84633004 121.53734823 178.42148161 119 181 C115.58940597 179.39464713 113.38207516 177.59481099 110.75 174.875 C110.04359375 174.15054688 109.3371875 173.42609375 108.609375 172.6796875 C107.81273437 171.84824219 107.81273437 171.84824219 107 171 C108.54435233 166.88034063 111.52013347 164.73849199 114.84765625 162.08203125 C130.1354281 149.66377255 130.1354281 149.66377255 136.94140625 131.94140625 C137.5077944 123.95611603 136.97257746 115.9330938 136 108 C134.79670044 108.50768921 134.79670044 108.50768921 133.5690918 109.02563477 C130.59224002 110.27628777 127.61198655 111.51833408 124.62915039 112.75463867 C123.33865574 113.29157402 122.04957528 113.83192148 120.76196289 114.37573242 C118.91146749 115.1565773 117.05540326 115.92418332 115.19921875 116.69140625 C113.52605591 117.39052124 113.52605591 117.39052124 111.8190918 118.10375977 C109 119 109 119 106 118 C104.61328125 115.34765625 104.61328125 115.34765625 103.3125 112.0625 C102.87550781 110.98097656 102.43851563 109.89945312 101.98828125 108.78515625 C101 106 101 106 101 104 C105.66137345 102.14425856 110.32447725 100.29296109 114.98925781 98.44580078 C116.57665868 97.81649348 118.16357559 97.18596404 119.75 96.55419922 C122.02739033 95.64751319 124.30647201 94.74520402 126.5859375 93.84375 C127.65320572 93.4172113 127.65320572 93.4172113 128.74203491 92.98205566 C133.77225659 91 133.77225659 91 136 91 C136 89.35 136 87.7 136 86 C135.4225 85.896875 134.845 85.79375 134.25 85.6875 C129.30802318 84.17745153 125.43909999 80.12666998 122.59375 75.921875 C119.36823344 69.51692069 118.72496834 62.74548209 120.58984375 55.8046875 C123.07893936 49.95473929 127.83462769 45.57675873 133 42 C133.99 42 134.98 42 136 42 C136 33.42 136 24.84 136 16 C126.68407586 15.16369135 117.40566489 14.5346308 108.05745125 14.21504021 C103.70938639 14.05919084 99.39684533 13.83225828 95.06640625 13.40429688 C74.60142557 11.45387937 57.92157398 15.03296389 41.31317139 27.71026611 C24.22113698 41.92766188 15.66549966 56.6196983 13.60107422 78.67236328 C11.95030608 98.75515313 12.68904762 118.97173 13.52946103 139.07622707 C13.94542225 149.22941883 14.11034744 159.38260653 14.25965095 169.54266 C14.57114699 190.37539625 15.21352315 211.17941179 16 232 C31.84 232 47.68 232 64 232 C64 237.28 64 242.56 64 248 C29.68 248 -4.64 248 -40 248 C-40 242.72 -40 237.44 -40 232 C-26.8 232 -13.6 232 0 232 C0 155.44 0 78.88 0 0 Z " fill="#D3843D" transform="translate(144,64)"/>
<path d="M0 0 C5.54772645 3.80646925 10.10735833 9.01188853 12.140625 15.46875 C13.10085499 22.83795689 12.1795214 29.18602226 8.140625 35.46875 C5.24298888 39.12169412 2.70395491 41.96981492 -1.796875 43.40625 C-2.4775 43.426875 -3.158125 43.4475 -3.859375 43.46875 C-3.859375 45.11875 -3.859375 46.76875 -3.859375 48.46875 C-3.28977051 48.62512939 -2.72016602 48.78150879 -2.13330078 48.94262695 C5.20215495 51.04107822 12.20499806 53.77863402 19.265625 56.65625 C20.41289062 57.11966797 21.56015625 57.58308594 22.7421875 58.06054688 C25.54329625 59.19266166 28.34269982 60.32879534 31.140625 61.46875 C30.67865708 62.89546564 30.21311203 64.32102329 29.74609375 65.74609375 C29.48723389 66.54007568 29.22837402 67.33405762 28.96166992 68.15209961 C27.93083274 71.0606973 26.60225559 73.75429319 25.140625 76.46875 C15.06960712 73.82717154 5.67164072 69.5972913 -3.859375 65.46875 C-6.56051603 84.92330704 -6.56051603 84.92330704 -0.04785156 102.71533203 C6.11669544 110.12409445 13.46868274 116.61164725 21.01083374 122.58937073 C22.69970703 123.96801758 22.69970703 123.96801758 25.140625 126.46875 C25.10850603 130.22541801 22.8858242 132.18558866 20.328125 134.78125 C19.64105469 135.49925781 18.95398438 136.21726563 18.24609375 136.95703125 C16.140625 138.46875 16.140625 138.46875 14.34790039 138.38378906 C11.16000433 137.0622279 9.07946062 134.77631926 6.71875 132.33984375 C6.21390076 131.83074966 5.70905151 131.32165558 5.18890381 130.7971344 C3.58228521 129.1737588 1.98642678 127.540253 0.390625 125.90625 C-0.69852484 124.8020495 -1.78836105 123.69852555 -2.87890625 122.59570312 C-5.5470826 119.8944971 -8.20565791 117.18415937 -10.859375 114.46875 C-14.72266127 116.0534858 -17.14814423 118.52831887 -20.0625 121.4765625 C-20.5451532 121.96204559 -21.0278064 122.44752869 -21.52508545 122.94772339 C-23.05796062 124.49174866 -24.58371504 126.04259824 -26.109375 127.59375 C-27.15057861 128.64499009 -28.19224041 129.69577657 -29.234375 130.74609375 C-31.78136964 133.31508004 -34.32202677 135.89023161 -36.859375 138.46875 C-40.26996903 136.86339713 -42.47729984 135.06356099 -45.109375 132.34375 C-45.81578125 131.61929688 -46.5221875 130.89484375 -47.25 130.1484375 C-48.04664063 129.31699219 -48.04664063 129.31699219 -48.859375 128.46875 C-47.31502267 124.34909063 -44.33924153 122.20724199 -41.01171875 119.55078125 C-25.7239469 107.13252255 -25.7239469 107.13252255 -18.91796875 89.41015625 C-18.3515806 81.42486603 -18.88679754 73.4018438 -19.859375 65.46875 C-20.66157471 65.80720947 -21.46377441 66.14566895 -22.2902832 66.49438477 C-25.26713498 67.74503777 -28.24738845 68.98708408 -31.23022461 70.22338867 C-32.52071926 70.76032402 -33.80979972 71.30067148 -35.09741211 71.84448242 C-36.94790751 72.6253273 -38.80397174 73.39293332 -40.66015625 74.16015625 C-42.33331909 74.85927124 -42.33331909 74.85927124 -44.0402832 75.57250977 C-46.859375 76.46875 -46.859375 76.46875 -49.859375 75.46875 C-51.24609375 72.81640625 -51.24609375 72.81640625 -52.546875 69.53125 C-52.98386719 68.44972656 -53.42085937 67.36820312 -53.87109375 66.25390625 C-54.859375 63.46875 -54.859375 63.46875 -54.859375 61.46875 C-50.19800155 59.61300856 -45.53489775 57.76171109 -40.87011719 55.91455078 C-39.28271632 55.28524348 -37.69579941 54.65471404 -36.109375 54.02294922 C-33.83198467 53.11626319 -31.55290299 52.21395402 -29.2734375 51.3125 C-28.56192535 51.02814087 -27.85041321 50.74378174 -27.11734009 50.45080566 C-22.08711841 48.46875 -22.08711841 48.46875 -19.859375 48.46875 C-19.859375 46.81875 -19.859375 45.16875 -19.859375 43.46875 C-20.436875 43.365625 -21.014375 43.2625 -21.609375 43.15625 C-26.55135182 41.64620153 -30.42027501 37.59541998 -33.265625 33.390625 C-36.49114156 26.98567069 -37.13440666 20.21423209 -35.26953125 13.2734375 C-32.498241 6.76026687 -26.70789434 1.3532396 -20.40234375 -1.734375 C-13.58125646 -3.87185857 -6.35705978 -3.20139701 0 0 Z " fill="#F5B94B" transform="translate(299.859375,106.53125)"/>
<path d="M0 0 C15.84 0 31.68 0 48 0 C48 15.84 48 31.68 48 48 C32.16 48 16.32 48 0 48 C0 32.16 0 16.32 0 0 Z " fill="#F4F4E6" transform="translate(232,400)"/>
<path d="M0 0 C15.84 0 31.68 0 48 0 C48 15.84 48 31.68 48 48 C32.16 48 16.32 48 0 48 C0 32.16 0 16.32 0 0 Z " fill="#F4F4E6" transform="translate(168,400)"/>
<path d="M0 0 C15.84 0 31.68 0 48 0 C48 15.84 48 31.68 48 48 C32.16 48 16.32 48 0 48 C0 32.16 0 16.32 0 0 Z " fill="#F4F4E6" transform="translate(296,336)"/>
<path d="M0 0 C15.84 0 31.68 0 48 0 C48 15.84 48 31.68 48 48 C32.16 48 16.32 48 0 48 C0 32.16 0 16.32 0 0 Z " fill="#F4F4E6" transform="translate(232,336)"/>
<path d="M0 0 C15.84 0 31.68 0 48 0 C48 15.84 48 31.68 48 48 C32.16 48 16.32 48 0 48 C0 32.16 0 16.32 0 0 Z " fill="#F4F4E6" transform="translate(104,336)"/>
<path d="M0 0 C5.54772645 3.80646925 10.10735833 9.01188853 12.140625 15.46875 C13.23458897 23.86428743 11.76689104 30.75001393 6.59765625 37.4765625 C1.92192243 42.59098073 -2.67304285 44.97912051 -9.53125 45.78125 C-15.84071442 46.06012136 -20.77724736 45.35021204 -25.859375 41.46875 C-32.49016305 35.2619555 -35.80716904 30.24098346 -36.234375 21.09375 C-36.06149574 14.36965668 -34.40452533 10.14210753 -29.765625 5.26953125 C-21.0360648 -2.83441047 -11.14510397 -5.61264228 0 0 Z " fill="#FDD581" transform="translate(299.859375,106.53125)"/>
<path d="M0 0 C34.32 0 68.64 0 104 0 C104 5.28 104 10.56 104 16 C69.68 16 35.36 16 0 16 C0 10.72 0 5.44 0 0 Z " fill="#AD6327" transform="translate(104,296)"/>
<path d="M0 0 C15.84 0 31.68 0 48 0 C48 21.12 48 42.24 48 64 C42.72 64 37.44 64 32 64 C32 48.16 32 32.32 32 16 C21.44 16 10.88 16 0 16 C0 10.72 0 5.44 0 0 Z " fill="#87CEE9" transform="translate(360,48)"/>
<path d="M0 0 C14.19 0 28.38 0 43 0 C36.248284 7.87700199 36.248284 7.87700199 33.0300293 11.09936523 C32.3129631 11.81958359 31.59589691 12.53980194 30.85710144 13.28184509 C30.10375015 14.03317215 29.35039886 14.78449921 28.57421875 15.55859375 C27.78602249 16.34774673 26.99782623 17.13689972 26.18574524 17.94996643 C24.53220354 19.60418475 22.87741391 21.25715649 21.22143555 22.90893555 C18.67445048 25.45052186 16.1328997 27.99745589 13.59179688 30.54492188 C11.98209176 32.15396696 10.37207689 33.76270223 8.76171875 35.37109375 C7.99824631 36.13659042 7.23477386 36.9020871 6.44816589 37.69078064 C5.39620781 38.73801048 5.39620781 38.73801048 4.32299805 39.80639648 C3.70377975 40.42481918 3.08456146 41.04324188 2.44657898 41.68040466 C1 43 1 43 0 43 C0 28.81 0 14.62 0 0 Z " fill="#AA6228" transform="translate(160,80)"/>
<path d="M0 0 C15.84 0 31.68 0 48 0 C48 5.28 48 10.56 48 16 C32.16 16 16.32 16 0 16 C0 10.72 0 5.44 0 0 Z " fill="#F4F4E6" transform="translate(360,432)"/>
<path d="M0 0 C15.84 0 31.68 0 48 0 C48 5.28 48 10.56 48 16 C32.16 16 16.32 16 0 16 C0 10.72 0 5.44 0 0 Z " fill="#F4F4E6" transform="translate(296,432)"/>
<path d="M0 0 C15.84 0 31.68 0 48 0 C48 5.28 48 10.56 48 16 C32.16 16 16.32 16 0 16 C0 10.72 0 5.44 0 0 Z " fill="#F4F4E6" transform="translate(104,432)"/>
<path d="M0 0 C15.84 0 31.68 0 48 0 C48 5.28 48 10.56 48 16 C32.16 16 16.32 16 0 16 C0 10.72 0 5.44 0 0 Z " fill="#F4F4E6" transform="translate(360,368)"/>
<path d="M0 0 C15.84 0 31.68 0 48 0 C48 5.28 48 10.56 48 16 C32.16 16 16.32 16 0 16 C0 10.72 0 5.44 0 0 Z " fill="#F4F4E6" transform="translate(168,368)"/>
<path d="M0 0 C5.28 0 10.56 0 16 0 C16 5.28 16 10.56 16 16 C10.72 16 5.44 16 0 16 C0 10.72 0 5.44 0 0 Z " fill="#195C85" transform="translate(248,416)"/>
<path d="M0 0 C5.28 0 10.56 0 16 0 C16 5.28 16 10.56 16 16 C10.72 16 5.44 16 0 16 C0 10.72 0 5.44 0 0 Z " fill="#195C85" transform="translate(184,416)"/>
<path d="M0 0 C5.28 0 10.56 0 16 0 C16 5.28 16 10.56 16 16 C10.72 16 5.44 16 0 16 C0 10.72 0 5.44 0 0 Z " fill="#195C85" transform="translate(312,352)"/>
<path d="M0 0 C5.28 0 10.56 0 16 0 C16 5.28 16 10.56 16 16 C10.72 16 5.44 16 0 16 C0 10.72 0 5.44 0 0 Z " fill="#195C85" transform="translate(248,352)"/>
<path d="M0 0 C5.28 0 10.56 0 16 0 C16 5.28 16 10.56 16 16 C10.72 16 5.44 16 0 16 C0 10.72 0 5.44 0 0 Z " fill="#195C85" transform="translate(120,352)"/>
<path d="M0 0 C5.28 0 10.56 0 16 0 C16 5.28 16 10.56 16 16 C10.72 16 5.44 16 0 16 C0 10.72 0 5.44 0 0 Z " fill="#87CEE9" transform="translate(392,128)"/>
<path d="M0 0 C5.28 0 10.56 0 16 0 C16 5.28 16 10.56 16 16 C10.72 16 5.44 16 0 16 C0 10.72 0 5.44 0 0 Z " fill="#87CEE9" transform="translate(104,80)"/>
<path d="M0 0 C5.28 0 10.56 0 16 0 C16 5.28 16 10.56 16 16 C10.72 16 5.44 16 0 16 C0 10.72 0 5.44 0 0 Z " fill="#87CEE9" transform="translate(104,48)"/>
<path d="M0 0 C6.6 0 13.2 0 20 0 C13.23827936 7.88867408 13.23827936 7.88867408 10.60546875 10.52734375 C9.76145508 11.37329102 9.76145508 11.37329102 8.90039062 12.23632812 C8.33513672 12.79771484 7.76988281 13.35910156 7.1875 13.9375 C6.60291016 14.52595703 6.01832031 15.11441406 5.41601562 15.72070312 C1.12677846 20 1.12677846 20 0 20 C0 13.4 0 6.8 0 0 Z " fill="#195C84" transform="translate(160,80)"/>
</svg>
