<?xml version="1.0" encoding="UTF-8"?>
<svg version="1.1" xmlns="http://www.w3.org/2000/svg" width="512" height="512">
<path d="M0 0 C6.0828596 4.14555688 8.34367861 10.74205942 10.453125 17.44921875 C10.84416412 18.65769218 10.84416412 18.65769218 11.24310303 19.89057922 C11.78855122 21.58261925 12.32952027 23.27610913 12.86621094 24.97094727 C13.68928657 27.56813746 14.52705461 30.1602363 15.3671875 32.75195312 C15.89669765 34.40076434 16.42537306 36.04984392 16.953125 37.69921875 C17.20306213 38.4742424 17.45299927 39.24926605 17.71051025 40.04777527 C18.67123934 43.09545358 19.4375 45.65913406 19.4375 48.875 C20.2657793 48.99105496 21.09405861 49.10710993 21.94743729 49.22668171 C46.56732827 52.68644191 71.14688462 56.38545204 95.71843624 60.17205024 C98.77751274 60.64336502 101.83666923 61.11415727 104.89585114 61.58478737 C115.60275262 63.23200639 126.3093346 64.88128469 137.015625 66.5324707 C146.95342253 68.06507354 156.89196124 69.59280446 166.83083224 71.11842889 C175.42909653 72.43850018 184.02682495 73.76202312 192.6241467 75.08821899 C197.73255508 75.87616062 202.84116958 76.66269957 207.95034027 77.44568443 C212.7283586 78.17802995 217.50569574 78.91466655 222.28254318 79.65460968 C224.03062749 79.92464425 225.77894888 80.19314921 227.52752304 80.45999336 C229.91702421 80.82489183 232.3056003 81.19535152 234.69403076 81.56718445 C235.38126496 81.67078567 236.06849916 81.77438689 236.77655864 81.88112754 C248.25036469 83.68786469 248.25036469 83.68786469 251.4375 86.875 C252.23386559 94.65009272 251.15202284 102.44851108 249.92808533 110.12036133 C249.76559864 111.18579446 249.60311195 112.25122759 249.43570143 113.34894657 C248.89399311 116.88635103 248.33947932 120.42162178 247.78491211 123.95703125 C247.39156077 126.5079477 246.99900383 129.05898676 246.60717773 131.61013794 C245.65368643 137.80872752 244.69068494 144.00580322 243.72454631 150.20243263 C242.59287387 157.46364209 241.47141057 164.72641756 240.35044355 171.98928607 C238.34242799 184.99755141 236.32621187 198.00453189 234.30493164 211.01074219 C232.35951425 223.52890351 230.4182941 236.04770393 228.48266602 248.56738281 C228.30490252 249.71714842 228.30490252 249.71714842 228.12354784 250.89014161 C227.64666947 253.97466818 227.16981541 257.05919851 226.69299495 260.14373404 C223.62698605 279.97712303 220.55686083 299.8098776 217.48167419 319.6418457 C217.37686516 320.31779175 217.27205612 320.9937378 217.16407105 321.69016707 C215.47655811 332.57157505 213.77886744 343.45137994 212.07749921 354.3306303 C210.99713935 361.2502417 209.93287056 368.17206259 208.88404292 375.09652233 C208.25086806 379.26763356 207.60905211 383.43738589 206.96548569 387.60690498 C206.67347104 389.51327826 206.3855093 391.4202775 206.10193622 393.32792473 C205.71918418 395.90076263 205.32251581 398.4710776 204.92237854 401.04125977 C204.81543627 401.78572168 204.70849401 402.5301836 204.59831107 403.29720497 C203.48221934 410.2789003 203.48221934 410.2789003 200.4375 412.875 C194.86745143 414.34462627 189.88154942 413.61787074 184.30422974 412.71794128 C183.40621734 412.58136606 182.50820493 412.44479084 181.58298004 412.30407697 C178.58385791 411.84541901 175.58720272 411.37229834 172.59033203 410.89916992 C170.43657535 410.56672665 168.28268159 410.23517042 166.12866211 409.9044342 C160.28422558 409.00440177 154.44182316 408.09174704 148.5997262 407.17666793 C142.48177318 406.2204079 136.36211035 405.27521567 130.24264526 404.32868958 C119.96392514 402.73720979 109.68640741 401.13815323 99.40966797 399.53393555 C86.23032694 397.47665051 73.04914972 395.43144791 59.86731148 393.3902235 C48.52398645 391.63363501 37.18146474 389.87188034 25.83910131 388.10909486 C22.19887411 387.54352211 18.55854972 386.97857801 14.91821671 386.41368675 C9.19025766 385.524474 3.46280783 384.63204739 -2.26426697 383.73715782 C-4.36311001 383.40964028 -6.46210635 383.08310338 -8.56126785 382.75763321 C-11.43303581 382.31217087 -14.30420977 381.86305574 -17.17526245 381.41300964 C-18.00028067 381.28586096 -18.82529888 381.15871229 -19.67531765 381.02771062 C-21.97540015 380.66488086 -24.26938666 380.27946704 -26.5625 379.875 C-27.37959072 379.73150136 -28.19668145 379.58800271 -29.0385325 379.44015563 C-29.83817855 379.28380782 -30.6378246 379.12746001 -31.46170235 378.9663744 C-32.17750501 378.82943222 -32.89330767 378.69249004 -33.63080132 378.5513981 C-35.93379681 377.74498777 -37.02527995 376.75020423 -38.5625 374.875 C-40.42188882 366.02785461 -37.30683718 355.39805574 -35.91625977 346.5612793 C-35.63152755 344.71582293 -35.3474572 342.87026435 -35.06399536 341.02461243 C-34.29594442 336.03635594 -33.51860643 331.04958723 -32.73948789 326.06304908 C-31.92454868 320.83718747 -31.11802469 315.61002723 -30.31053162 310.38301086 C-28.95439346 301.61223475 -27.5927972 292.84232096 -26.22729492 284.07299805 C-24.3015337 271.70560476 -22.38566333 259.33669427 -20.47175515 246.96746194 C-18.98435455 237.35692257 -17.49440278 227.7467784 -16.00390625 218.13671875 C-15.76429228 216.59162805 -15.76429228 216.59162805 -15.51983762 215.0153234 C-14.60183089 209.09700349 -13.68251298 203.17888984 -12.76124954 197.26107597 C-12.48232516 195.46844926 -12.20376427 193.67576595 -11.92559242 191.88302231 C-11.54600091 189.43724823 -11.16504282 186.99169093 -10.78370667 184.54618835 C-10.67378201 183.83607548 -10.56385735 183.1259626 -10.45060164 182.39433116 C-9.89932971 178.86937134 -9.29472317 175.3670529 -8.5625 171.875 C-9.42978729 172.15648392 -10.29707458 172.43796783 -11.19064331 172.72798157 C-19.39878189 175.39177093 -27.60726541 178.05449412 -35.81612968 180.71604633 C-40.03548578 182.0841249 -44.25471145 183.45260279 -48.47363281 184.82202148 C-52.55171092 186.14570715 -56.63013975 187.46830701 -60.70880508 188.79018211 C-62.25809162 189.29250311 -63.80725538 189.79520294 -65.35628891 190.2983036 C-94.01750064 199.60601807 -94.01750064 199.60601807 -102.6484375 195.95703125 C-114.8551455 189.05650448 -117.72899187 168.3890568 -121.63717651 156.00421143 C-123.36576476 150.52841727 -125.10795303 145.05696429 -126.8515625 139.5859375 C-127.22210251 138.4230722 -127.59264252 137.26020691 -127.97441101 136.06210327 C-133.38195974 119.13113782 -138.9562186 102.25412987 -144.51834106 85.37345314 C-145.15996048 83.42565246 -145.80103427 81.4776731 -146.44192505 79.52963257 C-147.22948968 77.13647895 -148.01830299 74.74373578 -148.80856323 72.35147095 C-149.15782867 71.29011932 -149.50709412 70.2287677 -149.86694336 69.13525391 C-150.17176132 68.21128815 -150.47657928 67.28732239 -150.79063416 66.33535767 C-152.66626064 60.35671251 -153.41597576 55.43542727 -151.375 49.3125 C-147.79244757 42.51800401 -144.53463397 39.20953404 -137.23046875 36.82250977 C-136.17777046 36.45391893 -136.17777046 36.45391893 -135.10380554 36.07788181 C-132.92970367 35.3231757 -130.74780102 34.59655355 -128.5625 33.875 C-127.26499887 33.43659551 -125.96763053 32.99779778 -124.67041016 32.55856323 C-120.74934065 31.24353577 -116.81310229 29.97774592 -112.875 28.71484375 C-111.41373583 28.24295449 -109.95258773 27.7707057 -108.49154663 27.29812622 C-104.64066366 26.05359869 -100.78834673 24.81357979 -96.93547821 23.57521439 C-90.5516287 21.52333972 -84.168809 19.4682612 -77.78623581 17.41242027 C-76.20644912 16.90363375 -74.62659745 16.39504897 -73.04668045 15.88666725 C-63.49629974 12.81271002 -53.96465327 9.69259674 -44.4609375 6.4765625 C-42.61858327 5.85787523 -40.77614009 5.23945279 -38.93359375 4.62133789 C-36.47937718 3.79782348 -34.02801558 2.96904363 -31.58349609 2.11715698 C-9.9359594 -5.4266727 -9.9359594 -5.4266727 0 0 Z M-17.09814453 13.32177734 C-18.2195282 13.69128006 -19.34091187 14.06078278 -20.49627686 14.44148254 C-21.71695862 14.86040268 -22.93764038 15.27932281 -24.1953125 15.7109375 C-25.48841243 16.14258688 -26.7819829 16.57282887 -28.07598877 17.00175476 C-30.84236902 17.92169806 -33.6054948 18.85063246 -36.36639404 19.78689575 C-40.69740942 21.25549916 -45.03463604 22.70502508 -49.37353516 24.15014648 C-50.83652107 24.63754677 -52.29950324 25.1249583 -53.76248169 25.61238098 C-54.4889603 25.85438547 -55.21543892 26.09638996 -55.96393204 26.34572792 C-58.18070675 27.08497646 -60.39680708 27.82621626 -62.61276245 28.56791687 C-77.38946931 33.5097851 -92.23048319 38.24342283 -107.0894165 42.93206787 C-110.02668593 43.85935833 -112.96260114 44.79084077 -115.8984375 45.72265625 C-116.73739563 45.98535812 -117.57635376 46.24806 -118.44073486 46.51872253 C-128.77857444 49.32684848 -128.77857444 49.32684848 -137.5625 54.875 C-136.34157119 62.48018606 -133.76615629 69.70513015 -131.3359375 76.99609375 C-130.91085376 78.28263675 -130.48621818 79.5693279 -130.06199646 80.8561554 C-129.15973836 83.59078651 -128.25504753 86.32459444 -127.34829712 89.05773926 C-124.96326599 96.24749057 -122.59301539 103.4421198 -120.22265625 110.63671875 C-119.9837863 111.36127888 -119.74491634 112.085839 -119.49880791 112.8323555 C-114.00099822 129.5136875 -108.65650602 146.24276427 -103.36279297 162.98999023 C-103.05003922 163.97525192 -102.73728546 164.96051361 -102.41505432 165.97563171 C-101.83792021 167.79382691 -101.26344463 169.61286919 -100.69224548 171.43293762 C-100.43907059 172.2294725 -100.18589569 173.02600739 -99.92504883 173.84667969 C-99.60036369 174.8761673 -99.60036369 174.8761673 -99.26911926 175.92645264 C-99.03593491 176.56947327 -98.80275055 177.2124939 -98.5625 177.875 C-98.18003365 178.95868866 -98.18003365 178.95868866 -97.7898407 180.06427002 C-96.67804627 182.07855316 -96.67804627 182.07855316 -94.30778503 182.72825623 C-91.01540181 182.90424405 -88.76461836 182.27124059 -85.63793945 181.22290039 C-84.45660431 180.83346252 -83.27526917 180.44402466 -82.05813599 180.04278564 C-80.76396403 179.6029005 -79.46984747 179.16285235 -78.17578125 178.72265625 C-76.81643996 178.27018994 -75.45672001 177.81885991 -74.09664917 177.36859131 C-71.19531015 176.40572784 -68.29649725 175.43573445 -65.39950562 174.45986938 C-60.86482793 172.93241249 -56.3253107 171.41977311 -51.78442383 169.91088867 C-51.02879119 169.6597849 -50.27315855 169.40868113 -49.49462795 169.14996815 C-47.96415581 168.64142215 -46.4336646 168.13293355 -44.90315437 167.62450218 C-42.59468633 166.85708913 -40.28673833 166.08812816 -37.97886658 165.31892395 C-28.40953946 162.13243168 -18.82313941 159.00802563 -9.2109375 155.953125 C-8.04815781 155.58356186 -6.88537811 155.21399872 -5.68736267 154.83323669 C-1.3138082 153.44569349 3.06075088 152.06145788 7.43783569 150.68508911 C10.38297284 149.75877322 13.32632174 148.82694971 16.26953125 147.89453125 C17.11959747 147.62985046 17.9696637 147.36516968 18.8454895 147.09246826 C26.64651064 144.97899053 26.64651064 144.97899053 32.68742371 140.12339783 C33.72108255 137.02494461 33.02813487 135.41859088 31.99072266 132.33935547 C31.62121994 131.2179718 31.25171722 130.09658813 30.87101746 128.94122314 C30.24263725 127.1102005 30.24263725 127.1102005 29.6015625 125.2421875 C29.16991312 123.94908757 28.73967113 122.6555171 28.31074524 121.36151123 C27.39080194 118.59513098 26.46186754 115.8320052 25.52560425 113.07110596 C24.05700084 108.74009058 22.60747492 104.40286396 21.16235352 100.06396484 C20.67495323 98.60097893 20.1875417 97.13799676 19.70011902 95.67501831 C19.45811453 94.9485397 19.21611004 94.22206108 18.96677208 93.47356796 C18.22752354 91.25679325 17.48628374 89.04069292 16.74458313 86.82473755 C11.8027149 72.04803069 7.06907717 57.20701681 2.38043213 42.3480835 C1.45314167 39.41081407 0.52165923 36.47489886 -0.41015625 33.5390625 C-0.80420906 32.28062531 -0.80420906 32.28062531 -1.20622253 30.99676514 C-2.55105227 26.76536256 -3.97790831 22.56350951 -5.50952148 18.39599609 C-5.80592026 17.57827728 -6.10231903 16.76055847 -6.40769958 15.9180603 C-9.12494903 11.11073221 -12.34703988 11.72110272 -17.09814453 13.32177734 Z M25.4375 64.875 C25.88848238 66.81422422 26.34855559 68.75133594 26.8125 70.6875 C27.06773437 71.76644531 27.32296875 72.84539062 27.5859375 73.95703125 C28.32482881 77.03033343 28.32482881 77.03033343 30.4375 79.875 C31.43463485 79.11217838 31.43463485 79.11217838 32.45191383 78.33394623 C36.27757042 76.46448846 39.1478073 76.892524 43.20687866 77.53186035 C43.95440411 77.63516615 44.70192956 77.73847196 45.47210729 77.84490824 C47.79683086 78.17073169 50.11686394 78.52136183 52.4375 78.875 C53.8095529 79.07285667 55.18177664 79.26953318 56.55418777 79.46488953 C60.74972905 80.07000977 64.93849189 80.71629672 69.12744141 81.36523438 C70.71459272 81.6088305 72.30178268 81.85217492 73.88900757 82.09529114 C78.14084533 82.74738314 82.39208993 83.40326338 86.64318895 84.06015205 C90.20715708 84.61052985 93.77140657 85.15907372 97.3356508 85.7076602 C105.74063877 87.00136696 114.14513098 88.29825874 122.54931641 89.59716797 C131.20173924 90.93438335 139.85500611 92.26603227 148.5086962 93.59501982 C155.9686119 94.74088036 163.42798566 95.89022174 170.8869375 97.0423398 C175.32940606 97.72848992 179.7720672 98.41332343 184.21525955 99.09477234 C188.38403303 99.73428363 192.55211148 100.3781474 196.71969986 101.02533531 C198.24523641 101.26149826 199.77100936 101.49614008 201.29703522 101.72912025 C203.38534924 102.04819638 205.47272557 102.37284447 207.55996704 102.69885254 C209.3091339 102.9687286 209.3091339 102.9687286 211.09363747 103.2440567 C220.6003494 105.0378494 220.6003494 105.0378494 223.4375 107.875 C224.17408012 113.69368876 223.2033079 119.67630431 222.28321838 125.42552185 C222.1588948 126.2375842 222.03457122 127.04964654 221.90648025 127.88631684 C221.49169739 130.58467349 221.06727524 133.28142043 220.64282227 135.97827148 C220.34157434 137.92478566 220.04092621 139.87139273 219.74082947 141.81808472 C218.92402663 147.10529423 218.09883304 152.39116381 217.27215314 157.67683673 C216.39861174 163.27167675 215.53286414 168.86772274 214.66624451 174.46363831 C213.01432836 185.12259147 211.35547944 195.78045362 209.6941337 206.43794066 C207.65789689 219.50261332 205.63064081 232.56867666 203.60351562 245.63476562 C201.47627205 259.34598142 199.34721625 273.05690238 197.20767212 286.76620483 C196.52778495 291.12389851 195.84804581 295.48161525 195.16845703 299.83935547 C195.00462753 300.88977233 194.84079802 301.94018919 194.67200398 303.02243686 C192.69201799 315.72447124 190.73796208 328.42988643 188.83320105 341.14342248 C188.50734666 343.31545086 188.17993582 345.48723768 187.85181713 347.65892506 C187.74868121 348.34156758 187.6455453 349.0242101 187.53928405 349.72753876 C187.43865903 350.39334468 187.33803401 351.05915059 187.23435974 351.74513245 C186.49560811 356.63354252 185.77185797 361.52381463 185.05775452 366.4158783 C184.74480591 368.49097415 184.43125144 370.56597877 184.11694336 372.64086914 C183.98822027 373.55526575 183.85949718 374.46966236 183.7268734 375.41176796 C183.53607169 376.64406671 183.53607169 376.64406671 183.34141541 377.90126038 C183.2381491 378.60354798 183.13488279 379.30583559 183.02848721 380.02940464 C182.27519378 382.38186649 181.41159108 383.39753246 179.4375 384.875 C170.88562102 386.60078373 160.83577914 383.76383331 152.30126953 382.42822266 C150.58226427 382.16483596 148.86316042 381.90209198 147.14396667 381.63993835 C142.50077898 380.9298814 137.85909878 380.21039653 133.21769571 379.48877764 C128.35294448 378.73369897 123.4870383 377.98613054 118.62130737 377.23739624 C110.4582914 375.98003046 102.29625678 374.7164417 94.13476562 373.44921875 C84.6985858 371.984164 75.26086268 370.52939642 65.8222667 369.07999575 C56.73370963 367.68407292 47.64634176 366.28054887 38.55947495 364.87366867 C34.6947248 364.27546565 30.82956703 363.68000348 26.96405411 363.08675003 C22.41748659 362.38864781 17.87199369 361.68392692 13.32724953 360.97405434 C11.65867625 360.71453142 9.98974309 360.45731042 8.32043648 360.20254707 C6.04423664 359.85477603 3.76948237 359.49873108 1.49490356 359.14053345 C0.22106874 358.94326975 -1.05276608 358.74600605 -2.36520195 358.54276466 C-5.15481957 357.9601452 -7.18224505 357.41040132 -9.5625 355.875 C-13.49611337 348.00777327 -8.33829623 332.09016073 -6.97045898 323.38232422 C-6.70387425 321.66122491 -6.43773294 319.94005687 -6.17199707 318.21882629 C-5.60303586 314.53973684 -5.03099883 310.8611442 -4.45648003 307.18291855 C-3.54827294 301.36816933 -2.64711174 295.55234116 -1.74684143 289.73635864 C-0.32337206 280.54579386 1.10472666 271.35595556 2.53484911 262.16642392 C5.10023216 245.68158705 7.65937944 229.19578282 10.21428055 212.70931828 C11.11086199 206.92515402 12.01003814 201.14140074 12.91131413 195.35796618 C13.46988534 191.77110835 14.02664445 188.18397088 14.58295441 184.5967617 C14.84177242 182.93050138 15.10137969 181.26436344 15.36182213 179.59835625 C15.71635294 177.32987383 16.06812095 175.06097973 16.41920471 172.79196167 C16.61701318 171.52110151 16.81482164 170.25024136 17.01862431 168.94087029 C17.5051839 165.89532771 17.5051839 165.89532771 17.4375 162.875 C14.1375 163.865 10.8375 164.855 7.4375 165.875 C3.52139696 191.08239444 -0.39039635 216.29045439 -4.29704285 241.49931622 C-6.1110164 253.20388367 -7.92640611 264.90822821 -9.74511719 276.61206055 C-11.3300748 286.81165809 -12.91238815 297.01166169 -14.49151134 307.21216422 C-15.32793736 312.61452728 -16.16569706 318.01667598 -17.00662231 323.41834068 C-17.79782988 328.50091945 -18.58550487 333.58403302 -19.3704567 338.66758156 C-19.65939023 340.53464108 -19.94962137 342.40150032 -20.24123764 344.2681427 C-20.63884202 346.81448217 -21.03179376 349.36149764 -21.42358398 351.90873718 C-21.54031243 352.64901694 -21.65704088 353.38929671 -21.77730656 354.15200919 C-22.32699445 357.75902292 -22.69226927 361.22504279 -22.5625 364.875 C1.92412066 369.01920349 26.43803097 372.95228677 50.98317742 376.73352003 C53.7219463 377.15555131 56.46062195 377.57818265 59.19927025 378.00099564 C68.79028624 379.48166464 78.38166544 380.95995481 87.97338867 382.43603516 C96.86904282 383.80506912 105.76380587 385.17979317 114.65820533 386.55695283 C122.36371055 387.74975904 130.0698323 388.93852371 137.77644318 390.12416518 C142.35122645 390.82806047 146.92574255 391.53359007 151.49962807 392.24329758 C155.77320197 392.90628023 160.04752059 393.56423072 164.32246399 394.21832275 C165.88563122 394.45837023 167.44852502 394.70020633 169.01111412 394.9439888 C171.14738322 395.27698565 173.28455677 395.60343584 175.42207336 395.92831421 C176.61512746 396.11225424 177.80818155 396.29619427 179.0373888 396.48570824 C182.54499447 396.88730745 185.9102203 397.01237249 189.4375 396.875 C191.03704055 395.27545945 190.92399364 393.39794513 191.26332951 391.19002914 C191.42207336 390.17048669 191.5808172 389.15094423 191.74437147 388.10050654 C191.91655131 386.96678213 192.08873114 385.83305772 192.26612854 384.66497803 C192.54304996 382.87426687 192.54304996 382.87426687 192.82556576 381.04737973 C193.33938954 377.71907972 193.8494666 374.39024356 194.35800016 371.06113362 C194.90649203 367.47638059 195.45972276 363.89235872 196.01235962 360.3082428 C197.09524739 353.28003764 198.17365002 346.25115123 199.25049014 339.2220172 C200.12569968 333.50961224 201.00254292 327.79746029 201.88056755 322.08548737 C202.00532332 321.27388563 202.13007908 320.46228389 202.25861533 319.62608816 C202.51203458 317.9775167 202.76545806 316.32894589 203.01888572 314.68037573 C205.39822052 299.20135113 207.77253514 283.7215597 210.14511114 268.2414979 C212.18177223 254.95387728 214.22253596 241.66689217 216.26635742 228.38037109 C218.637726 212.96450507 221.00668129 197.54827152 223.37168735 182.131428 C223.6238717 180.4875435 223.87605864 178.8436594 224.12824821 177.1997757 C224.25233819 176.39088994 224.37642816 175.58200418 224.50427844 174.74860673 C225.37957616 169.04402524 226.25658839 163.33970884 227.13424873 157.63549042 C228.20398969 150.6825241 229.27104272 143.72915162 230.3346538 136.77524486 C230.87757487 133.22605884 231.4216969 129.67706804 231.96906471 126.12856483 C232.56206149 122.2839803 233.14925546 118.43852264 233.7358551 114.59295654 C233.91026566 113.46815502 234.08467621 112.3433535 234.26437193 111.18446708 C234.42050803 110.15449363 234.57664414 109.12452018 234.73751163 108.06333542 C234.87366888 107.17571164 235.00982613 106.28808786 235.15010935 105.37356639 C235.44030448 102.85061797 235.48851732 100.41218184 235.4375 97.875 C230.66739575 96.42790078 226.03536787 95.39153204 221.09576416 94.63638306 C220.03731029 94.47266931 220.03731029 94.47266931 218.95747352 94.30564821 C216.61063253 93.94377489 214.26286347 93.58834249 211.91503906 93.23291016 C210.22378707 92.97348546 208.53259597 92.71366356 206.84146118 92.45347595 C202.25404977 91.74885369 197.66579999 91.04983649 193.07737446 90.35185289 C188.2475276 89.6161963 183.41845712 88.87547746 178.58929443 88.13534546 C170.45906956 86.88999776 162.32834879 85.647934 154.19726562 84.40820312 C142.82318761 82.67401476 131.45000205 80.93403133 120.07700014 79.19280171 C111.1608799 77.82793437 102.24452959 76.46457083 93.328125 75.1015625 C92.38960851 74.95809025 91.45109201 74.81461801 90.48413563 74.66679811 C68.80906868 71.35379318 47.13221921 68.0572899 25.4375 64.875 Z M43.4375 91.875 C42.90159181 94.53940231 42.38360738 97.20536648 41.875 99.875 C41.64780273 100.99068359 41.64780273 100.99068359 41.41601562 102.12890625 C39.90479933 110.21215622 41.13140395 116.60929232 43.9375 124.375 C47.05950613 133.4310478 48.59251714 139.87533632 44.4375 148.875 C42.19355195 152.48134507 40.77484411 153.7136313 36.90731525 155.56366539 C33.8538422 157.28090792 33.51572312 157.66859033 32.19353771 161.15748024 C32.02092072 162.4399835 31.84830374 163.72248676 31.67045593 165.04385376 C31.51347167 166.1001901 31.51347167 166.1001901 31.35331601 167.17786658 C31.13426902 168.66438493 30.92805342 170.15284469 30.73401809 171.64283419 C30.3580653 174.47297847 29.89512759 177.28527919 29.43187773 180.10220313 C28.83100217 183.78839247 28.27454086 187.4814142 27.71020508 191.17333984 C27.4538287 192.83749228 27.19722492 194.50160969 26.94041443 196.16569519 C26.25226159 200.62924872 25.56735134 205.09329397 24.88316178 209.55745649 C24.16420429 214.24524483 23.44246536 218.93260502 22.72111511 223.62002563 C21.51319598 231.47199265 20.30732631 239.32427222 19.1027832 247.17675781 C17.70954824 256.25921588 16.31337715 265.34121883 14.91559297 274.42297781 C13.56809468 283.17826512 12.22230275 291.9338138 10.87741661 300.68950272 C10.30574317 304.41123649 9.73353028 308.13288672 9.16089821 311.85447311 C8.48888129 316.22264579 7.81837454 320.59104764 7.14905739 324.95963478 C6.90285672 326.56499566 6.65614187 328.17027777 6.40888596 329.77547646 C6.07265898 331.95886181 5.73827086 334.14252084 5.40437317 336.32626343 C5.21653668 337.54990286 5.0287002 338.77354229 4.8351717 340.0342617 C4.39128766 342.72704141 4.39128766 342.72704141 4.4375 344.875 C39.47333804 350.47232854 74.53164212 355.92406564 109.59692383 361.33349609 C114.3747999 362.07060913 119.15245536 362.80912844 123.92993164 363.54882812 C129.6437632 364.43337066 135.35805595 365.31487181 141.07271385 366.19405937 C143.21209533 366.5236729 145.35132019 366.85430468 147.49038124 367.18599129 C150.44018342 367.64316803 153.39053779 368.09659839 156.34106445 368.54907227 C157.20972137 368.6845623 158.0783783 368.82005234 158.97335815 368.95964813 C160.17048683 369.14205173 160.17048683 369.14205173 161.39179993 369.32814026 C162.08101186 369.43444039 162.77022379 369.54074053 163.48032093 369.65026188 C165.77147455 369.95105197 165.77147455 369.95105197 169.4375 369.875 C171.03462169 363.87708704 172.15391449 357.91802564 173.08267212 351.78385925 C173.31187255 350.30057702 173.31187255 350.30057702 173.54570329 348.78732949 C174.0543942 345.48921208 174.55771362 342.19029817 175.06103516 338.89135742 C175.42554043 336.52064214 175.7903711 334.14997687 176.15550232 331.77935791 C177.0417772 326.01936057 177.92455419 320.25883522 178.80567195 314.4980469 C179.83200946 307.78873438 180.86224225 301.08002175 181.89260225 294.37132601 C183.73036097 282.40468661 185.56443 270.43748462 187.39648438 258.4699707 C189.17448138 246.85558798 190.95533657 235.24164811 192.73925781 223.62817383 C194.68282812 210.97533723 196.62501869 198.32229049 198.56462133 185.668845 C198.66711749 185.00018773 198.76961365 184.33153046 198.87521576 183.64261085 C199.08107036 182.29966754 199.28692191 180.95672376 199.49277038 179.61377951 C200.20991312 174.93570299 200.92798941 170.25777031 201.64638138 165.57988548 C202.61209254 159.29048437 203.57554809 153.00074179 204.53723335 146.71072388 C204.89121424 144.39783745 205.24596504 142.08506871 205.60152626 139.7724247 C206.08519549 136.62567128 206.56611116 133.47850938 207.04629517 130.33122253 C207.18889601 129.40769948 207.33149686 128.48417642 207.47841895 127.53266782 C207.60607118 126.69212993 207.73372342 125.85159204 207.86524391 124.98558331 C208.03221352 123.89564572 208.03221352 123.89564572 208.20255625 122.7836892 C208.49858481 120.69926116 208.49858481 120.69926116 208.4375 117.875 C200.77585419 115.73925936 192.96842087 114.62939393 185.1171875 113.44482422 C183.56917923 113.20840547 182.02122217 112.97165127 180.47331238 112.73458862 C176.29054809 112.09496305 172.10708684 111.46000841 167.92348099 110.82591391 C163.54419277 110.16134008 159.16556553 109.49243955 154.78686523 108.82400513 C146.50379912 107.56021508 138.22014909 106.30029603 129.93628025 105.04177964 C120.50171623 103.60825153 111.06781433 102.17038951 101.63396454 100.73216987 C82.23587396 97.77496982 62.83696167 94.82319123 43.4375 91.875 Z " fill="#000000" transform="translate(241.5625,21.125)"/>
<path d="M0 0 C1.010625 0.556875 2.02125 1.11375 3.0625 1.6875 C11.97197187 8.70133956 17.12104734 16.79718791 19 28 C19.62847241 36.00936935 18.31081775 43.66890356 15 51 C15.66 51 16.32 51 17 51 C19.14751732 54.49744628 19.25748984 57.31206785 19.265625 61.375 C19.26949219 63.22351563 19.26949219 63.22351563 19.2734375 65.109375 C19.26570313 66.39328125 19.25796875 67.6771875 19.25 69 C19.26160156 70.92585938 19.26160156 70.92585938 19.2734375 72.890625 C19.27085937 74.12296875 19.26828125 75.3553125 19.265625 76.625 C19.26336914 77.75164062 19.26111328 78.87828125 19.25878906 80.0390625 C19.00555158 82.9364816 18.60023733 84.59752915 17 87 C14.29120665 88.35439668 11.99066732 88.06501451 9 88 C9.28746094 89.27359375 9.57492188 90.5471875 9.87109375 91.859375 C10.61418859 95.1958253 11.31267992 98.53679978 11.97265625 101.890625 C15.78799351 120.88015439 21.28569145 139.48490531 28.18334961 157.58886719 C29.47671065 161.40747215 30.10343302 165.09674864 30.24609375 169.1171875 C30.27759521 169.88216553 30.30909668 170.64714355 30.34155273 171.43530273 C30.37321533 172.24040283 30.40487793 173.04550293 30.4375 173.875 C30.44771458 189.05445782 30.44771458 189.05445782 35 203 C35.928125 203.5775 36.85625 204.155 37.8125 204.75 C41.86244224 207.60878275 44.04325669 210.44671132 46 215 C46.63913659 218.79863544 46.61248508 222.47011187 46.5 226.3125 C46.50257813 227.30056641 46.50515625 228.28863281 46.5078125 229.30664062 C46.4105138 236.45323024 46.4105138 236.45323024 44.78688812 238.61576271 C42.41299382 240.45473236 40.97633024 240.37719928 37.98986816 240.38095093 C36.9551387 240.3894104 35.92040924 240.39786987 34.85432434 240.40658569 C33.15236153 240.39747665 33.15236153 240.39747665 31.41601562 240.38818359 C30.22070724 240.39344055 29.02539886 240.39869751 27.79386902 240.40411377 C24.51490158 240.41506559 21.23629661 240.41248395 17.95733452 240.40297651 C14.52741605 240.39538617 11.09752195 240.40242378 7.66760254 240.40713501 C1.90742641 240.4125944 -3.85263435 240.40539621 -9.61279297 240.39111328 C-16.27426253 240.37478631 -22.93545665 240.38007469 -29.59691954 240.3965925 C-35.31420104 240.41020221 -41.03139957 240.41212958 -46.74869204 240.40427649 C-50.16430966 240.39959709 -53.57979778 240.39898231 -56.9954071 240.40888596 C-60.80246789 240.41647805 -64.60899475 240.40492685 -68.41601562 240.38818359 C-69.5506575 240.39425629 -70.68529938 240.40032898 -71.85432434 240.40658569 C-73.40641853 240.39389648 -73.40641853 240.39389648 -74.98986816 240.38095093 C-75.89025063 240.37981985 -76.79063309 240.37868877 -77.71829987 240.37752342 C-80.46504855 239.92305443 -81.30991043 239.16602167 -83 237 C-85.87724961 231.24550079 -84.89759565 219.50569364 -83 213.375 C-80.40865929 209.00211254 -77.20366865 205.85599568 -73 203 C-72.34 203 -71.68 203 -71 203 C-69.87026657 196.58881181 -68.90427153 190.28214494 -68.75390625 183.765625 C-68.30043474 165.93818469 -64.00263955 151.43821423 -58.03160095 134.85162354 C-52.64155018 119.72216627 -49.45433488 103.84553046 -47 88 C-47.928125 88.061875 -48.85625 88.12375 -49.8125 88.1875 C-53 88 -53 88 -54.67431641 86.93530273 C-56.70456691 83.97143612 -56.38917586 81.40434779 -56.3984375 77.84765625 C-56.40130768 77.15111435 -56.40417786 76.45457245 -56.40713501 75.73692322 C-56.40917451 74.26511827 -56.40365252 72.79328615 -56.39111328 71.3215332 C-56.37508032 69.07376119 -56.39095132 66.82779366 -56.41015625 64.58007812 C-56.40817332 63.14843354 -56.40432861 61.71679008 -56.3984375 60.28515625 C-56.39505371 58.98457275 -56.39166992 57.68398926 -56.38818359 56.34399414 C-55.97405565 52.77650331 -55.16321837 51.71406946 -53 49 C-53.72139827 47.21368048 -54.4500612 45.43002069 -55.2109375 43.66015625 C-57.74326357 35.12295796 -56.86462219 24.62316 -53.3828125 16.52734375 C-47.5629172 5.89041646 -39.80331997 -0.50937922 -28.1875 -3.9375 C-18.22116344 -6.08961381 -8.87266967 -5.03388198 0 0 Z M-35.8125 17.8125 C-40.28325481 24.32702843 -42.27899587 30.15161623 -41 38 C-39.31293144 42.46760747 -37.39719361 46.60280639 -34 50 C-29.78147607 50.46852769 -25.54776976 50.45677668 -21.30639648 50.48046875 C-19.20459308 50.49984244 -17.10674 50.56183788 -15.00585938 50.625 C-8.23131898 50.93219567 -8.23131898 50.93219567 -2.00195312 48.78051758 C-0.42642594 47.08124547 -0.42642594 47.08124547 1 44 C1.38929688 43.26136719 1.77859375 42.52273438 2.1796875 41.76171875 C4.28938683 35.46817749 4.81222343 30.00710758 2.01953125 23.83203125 C-1.30471184 18.09798087 -5.76043357 13.51791353 -12 11 C-21.70647809 9.89582392 -28.84156692 10.84156692 -35.8125 17.8125 Z M-41 64 C-41 67.3 -41 70.6 -41 74 C-26.15 74 -11.3 74 4 74 C4 70.7 4 67.4 4 64 C-10.85 64 -25.7 64 -41 64 Z M-32 88 C-32.7425 93.011875 -32.7425 93.011875 -33.5 98.125 C-35.08672901 108.07259719 -37.3152711 117.7840595 -39.9375 127.5 C-40.26105469 128.70156738 -40.58460938 129.90313477 -40.91796875 131.14111328 C-43.40302654 140.17286844 -46.20254717 149.04815093 -49 158 C-29.2 158 -9.4 158 11 158 C9.4395024 150.82950445 9.4395024 150.82950445 7.44921875 143.86328125 C7.16530273 142.96746338 6.88138672 142.07164551 6.58886719 141.14868164 C6.29141602 140.2127417 5.99396484 139.27680176 5.6875 138.3125 C0.55610233 121.79865635 -2.95164583 105.00660745 -6 88 C-14.58 88 -23.16 88 -32 88 Z M-52 173 C-54.07894171 187.46538766 -54.07894171 187.46538766 -55 202 C-30.91 202 -6.82 202 18 202 C16.515 187.645 16.515 187.645 15 173 C-7.11 173 -29.22 173 -52 173 Z M-68 218 C-69.4472136 220.52174919 -69.4472136 220.52174919 -69 226 C-36 226 -3 226 31 226 C31.70552309 219.52857849 31.70552309 219.52857849 29.54650879 217.08576965 C25.82371097 215.49845885 22.23275813 215.59107212 18.25585938 215.62768555 C17.37412552 215.62403488 16.49239166 215.62038422 15.5839386 215.61662292 C12.67034627 215.60851928 9.7573104 215.62212607 6.84375 215.63671875 C4.81880697 215.63723738 2.79386343 215.63671957 0.7689209 215.63520813 C-3.47460447 215.63529785 -7.71793983 215.64572596 -11.96142578 215.66381836 C-17.40234604 215.68650539 -22.84298864 215.68704951 -28.28394318 215.68030071 C-32.46521474 215.6769601 -36.64642294 215.68359259 -40.8276825 215.69342995 C-42.83395557 215.69728063 -44.8402357 215.69843071 -46.84651184 215.6968441 C-49.64976443 215.69647347 -52.45266034 215.70909318 -55.25585938 215.7253418 C-56.0861113 215.72286438 -56.91636322 215.72038696 -57.77177429 215.71783447 C-63.21350903 215.71611472 -63.21350903 215.71611472 -68 218 Z " fill="#000000" transform="translate(176,253)"/>
<path d="M0 0 C1.22753906 1.45166016 1.22753906 1.45166016 2.328125 3.3515625 C2.962948 4.43763794 2.962948 4.43763794 3.6105957 5.5456543 C4.06909912 6.35558838 4.52760254 7.16552246 5 8 C5.51328857 8.86858643 6.02657715 9.73717285 6.55541992 10.63208008 C8.24369081 13.53699962 9.84349782 16.47993085 11.4375 19.4375 C12.28731445 20.88672852 12.28731445 20.88672852 13.15429688 22.36523438 C16.34275477 28.38613831 17.33423859 33.02840735 16.31713867 39.74414062 C16.21790415 40.47993064 16.11866962 41.21572065 16.01642799 41.97380733 C15.694715 44.31866174 15.34960461 46.65915487 15 49 C14.78207997 50.50714903 14.56428013 52.01431545 14.34660339 53.52149963 C13.6520218 58.25958345 12.91710133 62.99108311 12.1796875 67.72265625 C11.91323709 69.4470974 11.64705793 71.17158048 11.38113403 72.89610291 C10.69008341 77.3728656 9.99542081 81.84906005 9.29992676 86.32513428 C8.587032 90.9175814 7.87766193 95.51057286 7.16796875 100.10351562 C5.78203701 109.06953756 4.39227746 118.03496141 3 127 C4.08796875 127.28359375 5.1759375 127.5671875 6.296875 127.859375 C11.55942778 129.48033008 14.59618875 132.12825167 17.875 136.5 C19.83853928 142.60878888 20.33626409 149.37381326 18.0859375 155.48046875 C14.9833257 160.81495936 10.88882056 164.03705981 5 166 C2.60509014 166.06970052 0.20832309 166.08448003 -2.1875 166.0625 C-3.45980469 166.05347656 -4.73210937 166.04445313 -6.04296875 166.03515625 C-7.50669922 166.01775391 -7.50669922 166.01775391 -9 166 C-9.62041915 169.07706441 -10.18967259 172.16147533 -10.75 175.25 C-10.92660156 176.12269531 -11.10320312 176.99539063 -11.28515625 177.89453125 C-11.71004626 180.31455698 -12.05491519 182.54254524 -12 185 C-10.23892964 187.42934211 -10.23892964 187.42934211 -8 189 C-7.44197903 192.90614682 -7.41607182 195.05111671 -9.5 198.4375 C-16.10422759 202.56514224 -26.68901747 199.17784246 -34.00073242 198.02856445 C-36.19085263 197.6869771 -38.38318332 197.3636076 -40.57617188 197.04101562 C-41.98194143 196.82401898 -43.38754701 196.6059568 -44.79296875 196.38671875 C-46.68825317 196.09607544 -46.68825317 196.09607544 -48.62182617 195.79956055 C-52.29394732 194.9304273 -55.29658534 193.70341466 -58 191 C-58.58602771 184.78810624 -58.58602771 184.78810624 -56.1875 181.5625 C-54 180 -54 180 -51 180 C-50.95101563 179.32195312 -50.90203125 178.64390625 -50.8515625 177.9453125 C-50.33435787 171.50700659 -49.40818879 165.30267023 -48 159 C-49.155 158.9175 -50.31 158.835 -51.5 158.75 C-57.60373173 157.96137625 -62.76693382 155.73678058 -66.875 151.0625 C-70.55032634 145.76570615 -71.74098172 141.4656631 -71 135 C-69.82009593 129.28282846 -67.43487117 125.74456518 -62.82421875 122.1875 C-57.93700489 119.00610168 -53.68903656 118.9329123 -48 119 C-47.76651855 117.25082275 -47.76651855 117.25082275 -47.52832031 115.46630859 C-45.3926192 99.57593599 -43.17237701 83.69685901 -40.81391144 67.83798599 C-40.2146709 63.80386939 -39.62671394 59.76873795 -39.06298828 55.72949219 C-38.50743211 51.75146959 -37.92405044 47.77843292 -37.32132721 43.80729294 C-37.09945631 42.31374487 -36.88727681 40.81871984 -36.68556976 39.32231522 C-35.47523333 30.39894678 -33.95763873 24.11712928 -27 18 C-25.80443481 16.74038452 -25.80443481 16.74038452 -24.5847168 15.45532227 C-23.88000244 14.74947998 -23.17528809 14.0436377 -22.44921875 13.31640625 C-21.66869141 12.53458984 -20.88816406 11.75277344 -20.08398438 10.94726562 C-19.29314453 10.16029297 -18.50230469 9.37332031 -17.6875 8.5625 C-16.87732422 7.74845703 -16.06714844 6.93441406 -15.23242188 6.09570312 C-14.45833984 5.32291016 -13.68425781 4.55011719 -12.88671875 3.75390625 C-12.18764404 3.05595947 -11.48856934 2.3580127 -10.76831055 1.63891602 C-7.17078088 -1.69536766 -4.64508322 -1.33841381 0 0 Z M-12.23962784 23.61882019 C-20.93141609 32.39737478 -22.52615513 40.72940958 -24.015625 52.6875 C-24.28572686 54.56327387 -24.56012054 56.4384342 -24.83856201 58.31298828 C-25.55312203 63.20461607 -26.20790288 68.10241234 -26.85028076 73.00396729 C-27.51704392 78.00158574 -28.24451076 82.99034535 -28.96484375 87.98046875 C-30.00533505 95.26165226 -31.02792853 102.54488505 -31.99707031 109.8359375 C-32.09977737 110.59235031 -32.20248444 111.34876312 -32.30830383 112.12809753 C-32.78574969 115.77623941 -33.11594234 119.31964913 -33 123 C-30.25071558 123.50423557 -27.50068857 124.00353426 -24.75 124.5 C-23.97269531 124.64308594 -23.19539063 124.78617187 -22.39453125 124.93359375 C-21.64042969 125.06894531 -20.88632812 125.20429688 -20.109375 125.34375 C-19.41811523 125.46943359 -18.72685547 125.59511719 -18.01464844 125.72460938 C-15.67837306 126.09028978 -15.67837306 126.09028978 -12 126 C-10.29881361 115.03922414 -8.60331764 104.07758454 -6.91503143 93.1148138 C-6.1308713 88.02410491 -5.34477239 82.93371138 -4.55419922 77.84399414 C-3.79097933 72.92990286 -3.03290916 68.01504206 -2.27836609 63.09961128 C-1.98994782 61.2267089 -1.69969163 59.35408858 -1.407547 57.48176384 C-0.99791242 54.85437525 -0.59489119 52.22604947 -0.19335938 49.59741211 C-0.07179977 48.82776627 0.04975983 48.05812042 0.17500305 47.26515198 C1.64385612 38.55642396 1.64385612 38.55642396 -0.53125 30.25390625 C-0.84707031 29.64482422 -1.16289062 29.03574219 -1.48828125 28.40820312 C-1.82214844 27.79912109 -2.15601563 27.19003906 -2.5 26.5625 C-2.83386719 25.92634766 -3.16773438 25.29019531 -3.51171875 24.63476562 C-4.32840122 23.08306893 -5.1624334 21.54052429 -6 20 C-8.93122506 20 -10.19252488 21.69408613 -12.23962784 23.61882019 Z M-54.8125 135.1875 C-56.29991392 137.01267759 -56.29991392 137.01267759 -55.57421875 139.61328125 C-55.28998047 140.79470703 -55.28998047 140.79470703 -55 142 C-46.73863425 145.03347024 -38.47440564 146.758046 -29.8125 148.1875 C-28.29946289 148.43741699 -28.29946289 148.43741699 -26.75585938 148.69238281 C-18.72720805 149.97098098 -10.64375184 151.12139812 -2.5 151.1875 C-1.6853125 151.20167969 -0.870625 151.21585938 -0.03125 151.23046875 C2.22747814 151.18777575 2.22747814 151.18777575 4 149 C4.33333333 146.5 4.33333333 146.5 4 144 C1.21440602 141.21440602 -0.88423191 141.47829094 -4.78125 141.0703125 C-6.18727601 140.91522167 -7.59328109 140.7599409 -8.99926758 140.60449219 C-9.73529205 140.52630249 -10.47131653 140.44811279 -11.22964478 140.36755371 C-22.93848155 139.11663853 -34.39960673 137.63631711 -45.83203125 134.734375 C-50.49152936 133.58711332 -50.49152936 133.58711332 -54.8125 135.1875 Z M-33 163 C-35.13391403 169.25948114 -35.58955515 175.42208127 -36 182 C-33.03 182.33 -30.06 182.66 -27 183 C-25.20069384 173.56146021 -25.20069384 173.56146021 -25 164 C-26.18424326 162.58422523 -26.18424326 162.58422523 -29.5625 162.9375 C-31.2640625 162.9684375 -31.2640625 162.9684375 -33 163 Z " fill="#000000" transform="translate(367,154)"/>
<path d="M0 0 C5.07811266 5.35260523 6.49209737 10.18370985 6.30859375 17.4375 C5.71577172 22.36017408 3.96092874 26.2084242 0.28125 29.5703125 C-5.86401822 34.12718512 -11.45955083 34.71175238 -19 34 C-24.11261906 32.65095598 -27.07738515 30.36212212 -29.9375 25.9375 C-32.93399908 20.64537789 -33.69169396 16.0109179 -33 10 C-31.1641522 4.11479648 -28.07980054 0.3865337 -23 -3 C-14.64102652 -6.46976258 -7.22171737 -5.09768285 0 0 Z M-14 10 C-15.32 10.99 -16.64 11.98 -18 13 C-17.62095792 16.29075996 -17.62095792 16.29075996 -16 19 C-13.54190002 19.2500773 -13.54190002 19.2500773 -11 19 C-10.34 18.34 -9.68 17.68 -9 17 C-9.00922702 14.45286596 -9.00922702 14.45286596 -10 12 C-11.96758273 10.63979849 -11.96758273 10.63979849 -14 10 Z " fill="#000000" transform="translate(167,86)"/>
<path d="M0 0 C4.99848512 2.84264994 8.67463213 6.70916247 10.609375 12.1640625 C11.48615913 18.57976175 11.57435748 24.79215075 7.609375 30.1640625 C3.49069455 34.57009274 -0.30252548 37.2193574 -6.390625 38.1640625 C-13.08609089 38.35778303 -18.32502814 36.58786428 -23.390625 32.1640625 C-27.35211898 27.56140187 -28.61173633 22.15416955 -28.390625 16.1640625 C-27.41785598 9.42254699 -24.52474691 5.72834406 -19.328125 1.4765625 C-13.98622694 -2.14214264 -5.95532162 -2.08241638 0 0 Z M-11.390625 14.1640625 C-12.050625 15.8140625 -12.710625 17.4640625 -13.390625 19.1640625 C-11.66206574 21.30974163 -11.66206574 21.30974163 -9.390625 23.1640625 C-7.17204247 23.02764873 -7.17204247 23.02764873 -5.390625 22.1640625 C-4.71261466 19.26333069 -4.71261466 19.26333069 -4.390625 16.1640625 C-6.22946381 13.87677516 -6.22946381 13.87677516 -9.015625 14.0390625 C-9.799375 14.0803125 -10.583125 14.1215625 -11.390625 14.1640625 Z " fill="#000000" transform="translate(179.390625,135.8359375)"/>
<path d="M0 0 C4.88142884 2.76160516 7.75448988 6.14695354 10.0625 11.3125 C11.53320934 17.86384162 10.88437622 22.43049337 7.75 28.375 C4.18110527 33.67735788 0.86143721 36.00304471 -5.25 37.375 C-11.36622491 38.33696936 -16.21343883 36.9473238 -21.25 33.375 C-25.13070894 29.67106956 -28.0014885 26.41926582 -28.453125 20.88671875 C-28.57385302 13.61285568 -27.77237374 9.3878353 -23 3.6875 C-16.16534792 -2.05982107 -8.19659231 -3.68923835 0 0 Z M-11.25 13.375 C-13.48845015 15.20415641 -13.48845015 15.20415641 -13.5625 17.875 C-13.459375 18.7 -13.35625 19.525 -13.25 20.375 C-10.55844799 22.639384 -10.55844799 22.639384 -8.1875 22.125 C-6.05523025 21.44967282 -6.05523025 21.44967282 -4.25 19.375 C-4.61681658 16.44046739 -5.11437246 15.51062754 -7.25 13.375 C-8.57 13.375 -9.89 13.375 -11.25 13.375 Z " fill="#000000" transform="translate(234.25,118.625)"/>
<path d="M0 0 C4.9961892 2.83184813 7.89529949 7.06089848 9.6875 12.4375 C10.19498917 18.65424229 10.4594833 24.20539413 6.6875 29.4375 C2.57601475 33.84645705 -1.22971794 36.49362003 -7.3125 37.4375 C-13.3890625 37.51199376 -17.56217667 36.43209007 -22.3125 32.4375 C-27.7847007 26.77251174 -28.73092867 22.23943883 -28.65625 14.51953125 C-28.1393687 9.88522054 -26.45405954 6.83267503 -23.3125 3.4375 C-16.36768929 -1.97945235 -8.26243487 -3.67568396 0 0 Z M-11.3125 13.4375 C-13.59978734 15.27633881 -13.59978734 15.27633881 -13.4375 18.0625 C-13.39625 18.84625 -13.355 19.63 -13.3125 20.4375 C-10.98395537 21.63588209 -10.98395537 21.63588209 -8.3125 22.4375 C-7.3225 21.7775 -6.3325 21.1175 -5.3125 20.4375 C-4.89583333 17.9375 -4.89583333 17.9375 -5.3125 15.4375 C-5.9725 14.7775 -6.6325 14.1175 -7.3125 13.4375 C-8.6325 13.4375 -9.9525 13.4375 -11.3125 13.4375 Z " fill="#000000" transform="translate(217.3125,65.5625)"/>
<path d="M0 0 C2.9375 0.5625 2.9375 0.5625 5.3125 2 C9.08892261 7.95512796 6.65588813 16.74633446 5.5625 23.375 C5.37300781 24.62313477 5.37300781 24.62313477 5.1796875 25.89648438 C3.98977309 33.31560075 3.98977309 33.31560075 1.9375 36.5625 C-1.375 38 -1.375 38 -5.0625 38.5625 C-7.50503321 37.44743049 -9.17606555 36.44893445 -11.0625 34.5625 C-11.49547421 27.85139978 -10.79937589 21.38904493 -9.875 14.75 C-9.77413086 13.92580566 -9.67326172 13.10161133 -9.56933594 12.25244141 C-8.63967726 6.10190979 -6.76206816 1.24201252 0 0 Z " fill="#000000" transform="translate(421.0625,213.4375)"/>
</svg>
