<?xml version="1.0" standalone="no"?>
<!DOCTYPE svg PUBLIC "-//W3C//DTD SVG 20010904//EN"
 "http://www.w3.org/TR/2001/REC-SVG-20010904/DTD/svg10.dtd">
<svg version="1.0" xmlns="http://www.w3.org/2000/svg"
 width="512.000000pt" height="512.000000pt" viewBox="0 0 512.000000 512.000000"
 preserveAspectRatio="xMidYMid meet">

<g transform="translate(0.000000,512.000000) scale(0.100000,-0.100000)"
fill="#000000" stroke="none">
<path d="M2577 5011 c-109 -36 -191 -108 -241 -211 -29 -60 -31 -73 -31 -170
0 -93 3 -112 27 -162 75 -160 258 -259 426 -230 130 23 244 111 300 229 24 52
27 70 27 163 0 99 -2 110 -33 172 -42 86 -129 168 -209 198 -82 31 -192 36
-266 11z m200 -134 c107 -40 173 -133 173 -244 0 -76 -16 -117 -66 -173 -56
-62 -105 -84 -189 -84 -80 0 -129 21 -184 76 -106 106 -93 298 26 382 58 41
97 54 158 54 28 0 64 -5 82 -11z"/>
<path d="M2514 4129 c-55 -13 -769 -411 -812 -452 -19 -18 -43 -50 -54 -72
-25 -48 -149 -727 -150 -821 -1 -74 24 -136 76 -187 51 -52 91 -69 168 -75 83
-6 143 14 200 66 65 59 76 93 129 396 27 155 51 291 54 303 5 19 51 51 118 81
4 2 7 -108 7 -245 l0 -248 -423 -695 -422 -695 -130 -2 c-151 -3 -171 -7 -184
-32 -14 -25 -391 -1277 -391 -1297 0 -8 11 -26 25 -39 l24 -25 376 0 c236 0
383 4 395 10 26 14 29 29 100 430 33 190 62 354 65 365 3 11 23 31 46 45 23
14 51 38 63 55 11 16 199 322 418 680 218 357 401 650 406 650 6 0 86 -81 179
-181 l168 -181 154 -409 c85 -225 165 -431 179 -457 24 -45 69 -93 107 -114
12 -7 33 -107 90 -424 41 -228 77 -423 81 -432 3 -10 15 -22 25 -27 10 -6 169
-10 394 -10 l376 0 24 25 c14 13 25 31 25 39 0 19 -377 1272 -390 1297 -14 24
-34 29 -154 32 l-99 2 -142 375 c-78 206 -149 389 -158 405 -9 17 -135 162
-281 324 l-266 293 0 136 0 136 188 -186 c214 -213 243 -232 347 -232 75 0
123 18 183 69 82 69 108 215 55 314 -20 36 -159 186 -468 503 -393 403 -446
454 -500 480 -68 31 -157 43 -221 27z m129 -140 c49 -13 105 -63 128 -114 17
-37 19 -78 19 -542 l0 -503 38 -42 c20 -24 141 -158 267 -298 127 -141 238
-265 247 -276 17 -19 339 -858 360 -936 30 -113 -74 -217 -186 -187 -79 21
-88 38 -265 510 l-163 435 -330 355 c-182 195 -339 368 -349 384 -18 28 -19
54 -19 387 l0 357 -26 20 c-15 12 -34 21 -42 21 -20 0 -282 -136 -305 -159
-13 -13 -31 -96 -72 -331 -30 -173 -62 -329 -70 -346 -42 -81 -169 -86 -219
-9 -10 15 -18 45 -17 68 0 72 121 740 139 770 13 21 108 80 367 225 193 107
366 201 385 208 43 16 65 17 113 3z m885 -871 c59 -64 62 -70 62 -117 0 -59
-31 -103 -85 -121 -71 -23 -84 -14 -337 238 l-238 236 0 190 0 191 268 -275
c147 -151 296 -305 330 -342z m-1117 -558 l106 -115 -417 -685 c-312 -513
-425 -691 -450 -707 -41 -29 -111 -30 -160 -5 -47 25 -83 93 -77 147 3 32 98
195 443 763 241 397 441 721 444 719 3 -1 53 -54 111 -117z m-1106 -1237 c-20
-48 -35 -110 -35 -143 0 -130 108 -262 234 -285 34 -7 37 -10 33 -34 -3 -14
-29 -162 -59 -328 l-53 -303 -277 0 c-158 0 -278 4 -278 9 0 7 309 1043 325
1089 3 8 25 12 61 12 50 0 55 -2 49 -17z m2776 -513 c87 -289 161 -537 164
-552 l7 -28 -279 0 -278 0 -59 337 c-33 185 -60 345 -60 356 -1 15 10 22 52
33 155 40 255 206 213 352 l-10 33 46 -3 45 -3 159 -525z"/>
<path d="M110 1460 c-20 -20 -20 -33 -20 -673 l0 -654 23 -21 c30 -28 68 -28
94 1 21 24 443 1266 443 1305 0 12 -9 31 -20 42 -19 19 -33 20 -260 20 -227 0
-241 -1 -260 -20z m370 -127 c0 -5 -56 -172 -125 -373 l-124 -365 0 373 -1
372 125 0 c69 0 125 -3 125 -7z"/>
<path d="M2230 1458 c-11 -12 -20 -31 -20 -43 0 -12 -16 -273 -35 -581 -46
-750 -45 -702 -16 -725 22 -18 44 -19 401 -19 357 0 379 1 401 19 29 23 30
-25 -16 725 -19 308 -35 569 -35 581 0 12 -9 31 -20 43 -21 22 -25 22 -330 22
-305 0 -309 0 -330 -22z m544 -150 c4 -28 66 -1028 66 -1065 0 -10 -63 -13
-280 -13 -217 0 -280 3 -280 13 -1 35 62 1037 66 1065 l5 32 209 0 209 0 5
-32z"/>
<path d="M4490 1460 c-11 -11 -20 -30 -20 -42 0 -39 422 -1281 443 -1306 26
-29 68 -28 95 1 l22 23 0 652 c0 639 0 652 -20 672 -19 19 -33 20 -260 20
-227 0 -241 -1 -260 -20z m399 -492 l0 -373 -124 365 c-69 201 -125 368 -125
373 0 4 56 7 125 7 l125 0 -1 -372z"/>
</g>
</svg>
